<?xml version="1.0" encoding="UTF-8"?>
<!DOCTYPE svg PUBLIC "-//W3C//DTD SVG 1.1//EN" "http://www.w3.org/Graphics/SVG/1.1/DTD/svg11.dtd">
<!-- Creator: CorelDRAW -->
<svg xmlns="http://www.w3.org/2000/svg" xml:space="preserve" width="19.7272mm" height="25.4846mm" version="1.1" style="shape-rendering:geometricPrecision; text-rendering:geometricPrecision; image-rendering:optimizeQuality; fill-rule:evenodd; clip-rule:evenodd"
viewBox="0 0 1972.72 2548.46"
 xmlns:xlink="http://www.w3.org/1999/xlink"
 xmlns:xodm="http://www.corel.com/coreldraw/odm/2003">
 <defs>
  <style type="text/css">
   <![CDATA[
    .fil0 {fill:#7BC24D}
   ]]>
  </style>
 </defs>
 <g id="Camada_x0020_1">
  <metadata id="CorelCorpID_0Corel-Layer"/>
  <path class="fil0" d="M977.9 393.71c-14.96,-56.03 -108.35,-147.83 -149.9,-197.24 -35.1,-41.75 -43.88,-56.42 -88.18,-89.62 -77.75,-58.26 -101.78,-51.81 -193.72,-51.81 -94.01,0 -192.69,25.18 -242.17,88.02 -84.8,107.7 -101.58,186.38 -132.47,333.21 -15.14,71.97 -37.6,137.36 -52.57,218.36 -14.09,76.27 -5.19,167 -16.51,245.95 -12.12,84.4 -21.7,155.32 -31.02,239.91l-41.81 220.66c-32.28,136.29 -33.71,185.59 -33.78,311.19l0 6.24 0 6.36 0 6.5c0,97.14 39.99,152.06 49.54,229.86 15.52,126.43 70.97,334.73 118.51,440.28 16.01,35.55 89.59,151.12 128.28,151.12l107 0c104.59,-1.42 163.19,-12.49 251.15,-82.11 73.41,-58.11 199.35,-111.13 270.86,-262.54 44.65,-94.52 -19.8,-87.15 149.92,-87.15 36.56,0 21.76,45.87 84.9,143.7 25.33,39.23 80.29,84.64 116.14,120.92 41.26,41.75 83.5,73.12 137.42,99.65 144.4,71.06 322.35,91.05 409.56,-81.91 137.44,-272.62 148.73,-612.05 149.44,-919.4l0 -109.1 0 -15.86c0,-106.06 -46.89,-266.09 -65.48,-408.65 -19.99,-153.34 7.36,-199.51 -39.62,-434.51 -14.59,-73.01 -31.09,-124.21 -47.31,-189.75 -76.35,-308.36 -156.91,-321.75 -491.05,-321.75 -132.33,0 -316.9,367.32 -347.13,389.47z"/>
 </g>
</svg>
