<?xml version="1.0" encoding="UTF-8"?>
<!DOCTYPE svg PUBLIC "-//W3C//DTD SVG 1.1//EN" "http://www.w3.org/Graphics/SVG/1.1/DTD/svg11.dtd">
<!-- Creator: CorelDRAW -->
<svg xmlns="http://www.w3.org/2000/svg" xml:space="preserve" width="12.6998mm" height="10.7526mm" version="1.1" style="shape-rendering:geometricPrecision; text-rendering:geometricPrecision; image-rendering:optimizeQuality; fill-rule:evenodd; clip-rule:evenodd"
viewBox="0 0 1269.98 1075.26"
 xmlns:xlink="http://www.w3.org/1999/xlink"
 xmlns:xodm="http://www.corel.com/coreldraw/odm/2003">
 <defs>
  <style type="text/css">
   <![CDATA[
    .fil0 {fill:#00CCFF}
   ]]>
  </style>
 </defs>
 <g id="Camada_x0020_1">
  <metadata id="CorelCorpID_0Corel-Layer"/>
  <path class="fil0" d="M-0 776.97c6.22,52.77 24.02,97.43 69.57,139.83l119.3 83.89c57.09,28.69 90.28,30.07 156.64,46.56 69.81,17.35 126.14,27.97 177.83,32.25l102.01 0c68.58,-5.84 139.81,-23.44 237.24,-51.8 137.44,-40 222.99,-99.87 312.52,-203.93 58.17,-67.61 89.65,-178.8 94.87,-292.07l0 -67.36c-3.8,-82.23 -21.59,-161.18 -53.23,-220.61 -12.64,-23.75 -109.54,-111.06 -134.53,-127.93 -139.22,-93.98 -283.54,-109.49 -444.65,-111.56l-154.98 0c-34.21,0 -145.37,68.44 -174.46,88 -80.7,54.25 -152.99,100.91 -204.05,185.41 -47.81,79.12 -104.08,194.14 -104.08,293.85l0 205.47z"/>
 </g>
</svg>
