<?xml version="1.0" encoding="UTF-8"?>
<!DOCTYPE svg PUBLIC "-//W3C//DTD SVG 1.1//EN" "http://www.w3.org/Graphics/SVG/1.1/DTD/svg11.dtd">
<!-- Creator: CorelDRAW -->
<svg xmlns="http://www.w3.org/2000/svg" xml:space="preserve" width="14.4778mm" height="21.7592mm" version="1.1" style="shape-rendering:geometricPrecision; text-rendering:geometricPrecision; image-rendering:optimizeQuality; fill-rule:evenodd; clip-rule:evenodd"
viewBox="0 0 1447.78 2175.92"
 xmlns:xlink="http://www.w3.org/1999/xlink"
 xmlns:xodm="http://www.corel.com/coreldraw/odm/2003">
 <defs>
  <style type="text/css">
   <![CDATA[
    .fil0 {fill:#FFED05}
   ]]>
  </style>
 </defs>
 <g id="Camada_x0020_1">
  <metadata id="CorelCorpID_0Corel-Layer"/>
  <path class="fil0" d="M-4.23 664.63l13.56 164.24c8.85,60.65 0.48,300.35 13.16,427.1l81.47 502.73c18.08,73.81 41.8,154.57 84.45,203.41 72.77,83.32 79.96,122.74 178.87,151.33 22.46,6.49 8.64,2.02 25.05,8.81 59.87,24.77 117.02,39.34 187.55,41.05 98.27,2.38 174.63,16.85 279.48,16.85l13.56 0 101.51 0c148.87,-0.71 86.11,-8.91 209.19,-82.14 24.84,-14.77 50.21,-29.46 71.15,-47.37 65.6,-56.1 110.91,-61.18 152.77,-219.77 24.72,-93.64 33.65,-147.57 36.01,-196.21l0 -65.74c-1.39,-40.67 -4.34,-87.88 -4.19,-159.23 0.09,-42.32 2.17,-108.73 4.19,-182.23l0 -348.78c-0.97,-12.27 -2.14,-23.26 -3.57,-32.68 -13.09,-86.47 5.77,-125.18 -31.94,-272.86 -33.34,-130.6 4.27,-139.44 -33.29,-279.98 -18.35,-68.68 -16.46,-107.01 -63.15,-173.91 -54.22,-77.68 -52,-111.87 -127.48,-115.02l-25.8 0c-19.61,0.65 -43.29,2.63 -72.34,5.82 -270.52,29.74 -660.43,153.42 -768.59,154.93 -56.35,0.79 -56.12,6.45 -93.08,25.46 -160.48,82.54 -127.73,95.27 -179.33,286.33 -14.52,53.78 -49.21,121.94 -49.21,187.86z"/>
 </g>
</svg>
