<?xml version="1.0" encoding="UTF-8"?>
<!DOCTYPE svg PUBLIC "-//W3C//DTD SVG 1.1//EN" "http://www.w3.org/Graphics/SVG/1.1/DTD/svg11.dtd">
<!-- Creator: CorelDRAW -->
<svg xmlns="http://www.w3.org/2000/svg" xml:space="preserve" width="38.7772mm" height="45.1272mm" version="1.1" style="shape-rendering:geometricPrecision; text-rendering:geometricPrecision; image-rendering:optimizeQuality; fill-rule:evenodd; clip-rule:evenodd"
viewBox="0 0 3877.72 4512.72"
 xmlns:xlink="http://www.w3.org/1999/xlink"
 xmlns:xodm="http://www.corel.com/coreldraw/odm/2003">
 <defs>
  <style type="text/css">
   <![CDATA[
    .fil0 {fill:#7F35FE}
   ]]>
  </style>
 </defs>
 <g id="Camada_x0020_1">
  <metadata id="CorelCorpID_0Corel-Layer"/>
  <g id="_2558701876864">
   <path class="fil0" d="M-0 994.83c0,87.08 67.7,118.53 160.87,118.53 -15.79,23.57 -33.87,29.26 -33.87,67.73 0,64.85 44.85,67.74 110.07,67.74 -71.75,62.36 -57.61,135.46 16.93,135.46 42.51,0 49.13,-24.2 76.2,-42.33 31.21,22.87 16.84,42.33 76.2,42.33 29.03,0 76.63,-67.94 101.6,-84.66l95.67 73.66c83.96,70.83 33.48,33.68 84,85.33l88.87 80.46c56.25,56.18 323.26,111.93 381.1,135.37 61.13,24.78 184.21,99.31 247.82,99.31 60.61,0 156.22,-89.57 55.72,-157.32 -102.99,-69.43 25.29,-11.51 -151.32,-85.74 -136.14,-57.23 -477.51,-183.39 -573.44,-256.3 -69.85,-53.09 -39.78,-54.41 -175.02,-146.71l-14.43 -10.97c-82.54,-75.16 -35.66,-25.17 -73.79,-53.21 -29.21,-21.5 -109.13,-145.18 -210.71,-77.15 0,-51.24 -23.12,-114.73 -33.87,-160.87 59.22,-88.44 130.03,-171.98 228.39,-220.33 110.09,-54.12 275.7,-109.86 406.61,-109.86 51.08,0 71.43,11.65 111.1,15.89 41.98,4.49 92.38,-5.5 128.84,6.63 37.17,12.36 52.79,33.86 84.34,51.12 116.9,63.93 108.3,20.06 227.28,179.13 19.77,26.43 36.68,53.48 56.6,78.86 97.63,124.37 182.55,19.42 79.6,-96.54 -75.18,-84.69 -121.05,-173.11 -216.36,-223.9 -35.51,-18.93 -62.14,-27.34 -96.33,-47.61 -127.8,-75.77 -100.63,-61.66 -231.44,-64.89 -54.33,-1.34 -79.14,-17.23 -211.37,-17.23 -74.6,0 -209.85,54.41 -271.98,75.15 -239.36,79.9 -297.25,180.17 -430.72,365.15 -34.53,47.86 -93.16,110.4 -93.16,177.77z"/>
   <path class="fil0" d="M2497.66 3585.62l-62.46 166.14c-28.3,84.98 -149.21,497.05 -149.21,561.99 0,66.16 -13,121.48 96.2,140.87 51.04,9.05 120.53,-0.32 159.96,9.37 37.74,9.27 161.58,43.03 272.93,52.96l105.05 0c55.38,-7.12 93.99,-28.95 93.99,-76.2 0,-64.07 -54.42,-65.56 -90.87,-95.39 -42.36,-34.67 -53.6,-60.82 -113.06,-81.68 -112.22,-39.35 -217.42,7.74 -337.93,7.74 1.21,-54.36 25.9,-130.94 38.52,-181.61l94.97 -345.3c6.14,-43.08 -1.16,-62.81 9.25,-100.81 30.71,-112.05 16.8,-171.12 -2.69,-291.26 -3.68,-22.66 2.37,-147.82 -63.85,-147.82 -55.48,0 -60.35,40.51 -66.96,51.57 -16.35,27.37 -77.12,42.43 -61.66,102.62 9.57,37.25 36.95,51.06 48.9,103.33 5.5,24.09 6.61,45.27 10.94,65.25 5.74,26.44 17.98,45.04 17.98,58.23z"/>
   <path class="fil0" d="M1515.53 3424.75c0,99.61 -5.3,215.87 28.97,301.23 28.77,71.66 24.63,115.89 40.96,196.11 12.82,63.03 67.77,149.99 97.61,257.99 9.83,35.57 19.58,58.66 27.19,91.34 -186.37,27.37 -102.19,-25.4 -279.4,-25.4 -117.04,0 -296.33,152.97 -296.33,203.2 0,40.73 35.78,60.2 85.28,67.73l132.42 0c64.75,-6.31 124.79,-18.47 148.54,-23.22l309.19 -63.35c216.69,-55.86 -80.02,-419.39 -107.9,-624.89 -43.04,-317.13 8.95,-407.2 4.63,-454.03 -11.49,-124.59 -24.24,-129.91 -81.1,-129.91 -52.61,0 -110.06,138.8 -110.06,203.2z"/>
   <path class="fil0" d="M2624.66 1604.43l2.91 56.76c-7,45.84 -15.05,-5.36 -6.57,40.24 4.48,24.07 37.39,55.39 54.46,55.39 67.11,0 229.6,-92.72 289.44,-133.88l285.19 -138.15c38.15,-13.43 78.19,-35.09 110.08,-59.25 34.09,-25.83 164.75,-145.28 187.35,-151.31 0,121.7 116.87,141.55 143.93,25.4 31.41,16.61 81.93,56.47 126.01,33.57 70.74,-36.75 6.69,-109.74 0.99,-118.24 46.65,-22.38 59.27,-13.61 59.27,-84.67 0,-51.98 -78,-59.26 -118.53,-59.26 30.72,-45.88 71.41,-85.52 11.87,-121.94 -103.54,-63.34 -130.08,39.98 -303.48,168.99l-120.65 99.49c-110.28,93.22 -130.43,112.6 -270.07,170.19 -33.67,13.89 -42.87,25.63 -71.19,38.88l-234.53 95.67c-43.36,17.14 -146.48,33.41 -146.48,82.12z"/>
   <path class="fil0" d="M2252.13 630.76c0,56.23 26.41,59.27 67.73,59.27 25.93,0 62,-67.27 137.51,-133.42 116.78,-102.32 110.9,-109.05 262.08,-203.59 98.4,-61.54 147.74,-107.25 218.32,-154.21 112.6,-74.9 237.75,-76.05 381.15,-76.05 80.43,0 126.05,114.68 163.74,183.4 10.56,19.25 38.12,58.36 43.65,74.88 53.97,161.18 -106.35,342.85 156.68,342.85 110.59,0 93.13,-134.37 93.13,-211.66 0,-43.46 -22.21,-51.03 -47.28,-71.25 -23.94,-19.31 -32.03,-41.62 -52.3,-66.24 -37.48,-45.53 -71.91,-81.85 -100.87,-136.19 -69.16,-129.76 -42.14,-126.51 -153.23,-202.37 -32.38,-22.12 -52.03,-29.68 -76.74,-31.95l-86.04 0c-120.05,0 -262.58,24.07 -337.28,69.12 -47,28.35 -77.81,52.02 -121.51,81.69 -94.54,64.19 -548.74,364.81 -548.74,475.72z"/>
   <path class="fil0" d="M3234.26 2256.36c-54,37.51 -179.88,45.96 -243.18,70.09 -228.34,87.06 -306.21,88.9 -295.7,327.32 2.08,47.22 28.65,63.94 71.92,78.01 84.54,27.48 331.49,58.56 331.49,-69.02 0,-27.85 -25.78,-67.74 -42.33,-67.74 -53.7,0 -65.29,25.31 -112.77,30.39 -31.53,3.37 -77.39,-13.45 -124.3,-13.45 7.52,-32.29 8.47,-33.66 8.47,-76.2 20.87,-10.02 46.99,-20.04 71.36,-30.24 29.94,-12.54 43.09,-18.86 71.25,-30.35 52.69,-21.5 92.1,-30.2 158.67,-44.53 33.83,-7.28 49.86,-13.9 78.62,-22.98 26.75,-8.43 48.76,-11.35 82.15,-19.45 188.31,-45.66 103.74,-180.72 -11.54,-252.17 -30.42,-18.86 -53.88,-30.59 -82.94,-52.52 -170.32,-128.56 -86.23,-54.74 -280.52,-142.81 -99.62,-45.16 -239.6,-142.1 -287.38,-44.59 -40.25,82.17 80.61,90.35 138.35,117.42 72.53,34.01 109.44,58.53 190.09,89.3 34.77,13.27 74.41,20.65 105.69,38.25 26.89,15.12 57.19,42.79 81.28,62.64 22.05,18.17 61.71,45.73 91.32,52.63z"/>
   <path class="fil0" d="M626.53 2281.76c0,218.23 609.6,163.68 609.6,296.33l0 25.4c-58.77,0 -185.41,-9.42 -221.87,15.2 -60.12,40.6 -29.71,120.27 44.07,120.27 101.53,0 304.8,18.96 304.8,-84.67 0,-281.88 -154.61,-270.82 -414.23,-322.37 -77.55,-15.4 -156.07,-49.48 -186.9,-50.16l124.37 -104.23c41.41,-30.77 107.61,-58.88 154.79,-82.27 182.64,-90.54 330.44,-36.36 330.44,-160.64 0,-106.52 -245.68,-7.04 -276.2,3.21 -93.35,31.31 -124.87,23.9 -199.79,71.14 -27.31,17.22 -200.48,147.98 -225.91,180.49 -13.74,17.57 -43.17,64.78 -43.17,92.3z"/>
  </g>
 </g>
</svg>
