<?xml version="1.0" encoding="UTF-8"?>
<!DOCTYPE svg PUBLIC "-//W3C//DTD SVG 1.1//EN" "http://www.w3.org/Graphics/SVG/1.1/DTD/svg11.dtd">
<!-- Creator: CorelDRAW -->
<svg xmlns="http://www.w3.org/2000/svg" xml:space="preserve" width="18.8806mm" height="24.5532mm" version="1.1" style="shape-rendering:geometricPrecision; text-rendering:geometricPrecision; image-rendering:optimizeQuality; fill-rule:evenodd; clip-rule:evenodd"
viewBox="0 0 1888.06 2455.32"
 xmlns:xlink="http://www.w3.org/1999/xlink"
 xmlns:xodm="http://www.corel.com/coreldraw/odm/2003">
 <defs>
  <style type="text/css">
   <![CDATA[
    .fil0 {fill:black}
   ]]>
  </style>
 </defs>
 <g id="Camada_x0020_1">
  <metadata id="CorelCorpID_0Corel-Layer"/>
  <path class="fil0" d="M21.17 1468.96l8.47 0 0 -110.07 8.46 0 0 -50.8 8.47 0 0 -33.87 8.47 0 0 -33.86 8.46 0 0 -42.34 8.47 0 0 -42.33 8.47 0 0 -42.33 8.46 0 0 -42.34 8.47 0 0 -33.86 8.47 0 0 -42.34 8.46 0 0 -50.8 8.47 0 0 -101.59 8.47 0 0 -152.4 8.46 0 0 -186.27 8.47 0 0 -59.27 8.47 0 0 -50.8 8.46 0 0 -42.33 8.47 0 0 -33.87 8.47 0 0 -25.39 8.46 0 0 -25.4 8.47 0 0 -25.4 8.47 0 0 -25.4 8.46 0 0 -16.94 8.47 0 0 -16.93 8.47 0 0 -16.93 8.46 0 0 -16.94 8.47 0 0 -8.46 8.47 0 0 -8.47 8.46 0 0 -8.47 8.47 0 0 -8.46 8.47 0 0 -8.47 8.46 0 0 -8.47 8.47 0 0 -8.46 16.93 0 0 -8.47 25.4 0 0 -8.47 42.34 0 0 -8.46 59.26 0 0 -8.47 50.8 0 0 -8.47 50.8 0 0 8.47 33.87 0 0 8.47 42.33 0 0 8.46 33.87 0 0 8.47 42.33 0 0 8.47 25.4 0 0 8.46 25.4 0 0 8.47 16.93 0 0 8.47 16.94 0 0 8.46 16.93 0 0 8.47 16.93 0 0 8.47 8.47 0 0 8.46 8.47 0 0 8.47 8.46 0 0 8.47 8.47 0 0 8.46 8.47 0 0 8.47 8.46 0 0 16.93 8.47 0 0 8.47 8.47 0 0 16.93 8.46 0 0 16.94 8.47 0 0 16.93 8.47 0 0 16.93 8.46 0 0 16.94 8.47 0 0 16.93 16.93 0 0 -8.47 8.47 0 0 -16.93 8.47 0 0 -16.93 8.46 0 0 -16.94 8.47 0 0 -25.4 8.47 0 0 -16.93 8.46 0 0 -8.47 8.47 0 0 -16.93 8.47 0 0 -8.47 8.46 0 0 -16.93 8.47 0 0 -8.47 8.47 0 0 -8.46 8.46 0 0 -8.47 8.47 0 0 -8.47 16.93 0 0 -8.46 8.47 0 0 -8.47 16.93 0 0 -8.47 16.94 0 0 -8.46 16.93 0 0 -8.47 33.87 0 0 -8.47 25.4 0 0 -8.46 33.86 0 0 -8.47 42.34 0 0 -8.47 42.33 0 0 -8.46 118.53 0 0 8.46 67.73 0 0 8.47 42.34 0 0 8.47 16.93 0 0 8.46 16.93 0 0 8.47 16.94 0 0 8.47 8.46 0 0 8.46 8.47 0 0 8.47 8.47 0 0 8.47 8.46 0 0 8.46 8.47 0 0 8.47 8.47 0 0 16.93 8.46 0 0 16.94 8.47 0 0 16.93 8.47 0 0 16.93 8.46 0 0 25.4 8.47 0 0 25.4 8.47 0 0 25.4 8.46 0 0 25.4 8.47 0 0 42.33 8.47 0 0 33.87 8.46 0 0 50.8 8.47 0 0 50.8 8.47 0 0 160.87 8.46 0 0 186.26 8.47 0 0 93.14 8.47 0 0 50.79 8.46 0 0 42.34 8.47 0 0 42.33 8.47 0 0 42.33 8.46 0 0 33.87 8.47 0 0 50.8 8.47 0 0 33.87 8.46 0 0 42.33 8.47 0 0 33.87 8.47 0 0 42.33 8.46 0 0 67.73 8.47 0 0 110.07 -8.47 0 0 110.06 -8.46 0 0 101.6 -8.47 0 0 93.14 -8.47 0 0 76.2 -8.46 0 0 59.26 -8.47 0 0 76.2 -8.47 0 0 42.34 -8.46 0 0 33.86 -8.47 0 0 33.87 -8.47 0 0 33.86 -8.46 0 0 16.94 -8.47 0 0 16.93 -8.47 0 0 25.4 -8.46 0 0 25.4 -8.47 0 0 16.93 -8.47 0 0 16.94 -8.46 0 0 16.93 -8.47 0 0 16.93 -8.47 0 0 16.94 -8.46 0 0 8.46 -8.47 0 0 16.94 -8.47 0 0 8.46 -8.46 0 0 8.47 -8.47 0 0 8.47 -16.93 0 0 8.46 -25.4 0 0 8.47 -25.4 0 0 8.47 -67.74 0 0 -8.47 -25.4 0 0 -8.47 -16.93 0 0 -8.46 -16.93 0 0 -8.47 -25.4 0 0 -8.47 -8.47 0 0 -8.46 -16.93 0 0 -8.47 -16.93 0 0 -8.47 -8.47 0 0 -8.46 -8.47 0 0 -8.47 -16.93 0 0 -8.47 -8.47 0 0 -8.46 -16.93 0 0 -8.47 -8.47 0 0 -8.47 -8.46 0 0 -8.46 -16.94 0 0 -8.47 -8.46 0 0 -8.47 -8.47 0 0 -8.46 -8.47 0 0 -8.47 -16.93 0 0 -8.47 -8.47 0 0 -8.46 -8.46 0 0 -8.47 -8.47 0 0 -8.47 -8.47 0 0 -8.46 -8.46 0 0 -8.47 -8.47 0 0 -8.47 -8.47 0 0 -8.46 -8.46 0 0 -8.47 -8.47 0 0 -8.47 -8.47 0 0 -8.46 -8.46 0 0 -8.47 -8.47 0 0 -8.46 -8.47 0 0 -16.94 -8.46 0 0 -8.46 -8.47 0 0 -8.47 -8.47 0 0 -8.47 -8.46 0 0 -16.93 -8.47 0 0 -16.93 -8.47 0 0 -8.47 -8.46 0 0 -16.93 -8.47 0 0 -8.47 -8.47 0 0 -16.93 -8.46 0 0 -16.94 -8.47 0 0 -16.93 -8.47 0 0 -16.93 -8.46 0 0 -16.94 -8.47 0 0 -16.93 -8.47 0 0 -16.93 -8.46 0 0 -16.94 -8.47 0 0 -16.93 -8.47 0 0 -16.93 -8.46 0 0 -25.4 -8.47 0 0 -16.94 -8.47 0 0 -25.4 -8.46 0 0 -16.93 -8.47 0 0 -8.47 -16.93 0 0 8.47 -8.47 0 0 16.93 -8.47 0 0 25.4 -8.46 0 0 16.94 -8.47 0 0 25.4 -8.47 0 0 16.93 -8.46 0 0 16.93 -8.47 0 0 16.94 -8.47 0 0 16.93 -8.46 0 0 16.93 -8.47 0 0 16.94 -8.47 0 0 16.93 -8.46 0 0 16.93 -8.47 0 0 16.94 -8.47 0 0 16.93 -8.46 0 0 8.47 -8.47 0 0 16.93 -8.47 0 0 16.93 -8.46 0 0 8.47 -8.47 0 0 16.93 -8.47 0 0 8.47 -8.46 0 0 16.93 -8.47 0 0 8.47 -8.47 0 0 16.93 -8.46 0 0 8.47 -8.47 0 0 8.46 -8.47 0 0 8.47 -8.46 0 0 8.47 -8.47 0 0 8.46 -8.47 0 0 8.47 -8.46 0 0 8.47 -8.47 0 0 8.46 -8.47 0 0 8.47 -8.46 0 0 8.47 -8.47 0 0 8.46 -8.47 0 0 8.47 -8.46 0 0 8.47 -8.47 0 0 8.46 -16.93 0 0 8.47 -8.47 0 0 8.47 -8.47 0 0 8.46 -8.46 0 0 8.47 -16.94 0 0 8.47 -8.46 0 0 8.46 -8.47 0 0 8.47 -16.93 0 0 8.47 -8.47 0 0 8.46 -16.93 0 0 8.47 -8.47 0 0 8.47 -8.47 0 0 8.46 -16.93 0 0 8.47 -16.93 0 0 8.47 -16.93 0 0 8.46 -16.94 0 0 8.47 -16.93 0 0 8.47 -16.93 0 0 8.46 -33.87 0 0 8.47 -59.27 0 0 -8.47 -25.4 0 0 -8.46 -16.93 0 0 -8.47 -16.93 0 0 -8.47 -8.47 0 0 -8.46 -16.93 0 0 -16.94 -8.47 0 0 -8.46 -8.47 0 0 -16.94 -8.46 0 0 -16.93 -8.47 0 0 -16.93 -8.47 0 0 -8.47 -8.46 0 0 -25.4 -8.47 0 0 -16.93 -8.47 0 0 -25.4 -8.46 0 0 -16.94 -8.47 0 0 -25.4 -8.47 0 0 -16.93 -8.46 0 0 -25.4 -8.47 0 0 -33.86 -8.47 0 0 -42.34 -8.46 0 0 -42.33 -8.47 0 0 -67.73 -8.47 0 0 -59.27 -8.46 0 0 -76.2 -8.47 0 0 -101.6 -8.47 0 0 -110.07 -8.46 0 0 -118.53 -8.47 0 0 -33.86zm1295.4 -1456.26l-42.34 0 0 8.46 -42.33 0 0 8.47 -33.87 0 0 8.47 -25.4 0 0 8.46 -33.86 0 0 8.47 -16.94 0 0 8.47 -25.4 0 0 8.46 -16.93 0 0 8.47 -16.93 0 0 8.47 -16.94 0 0 8.46 -8.46 0 0 8.47 -8.47 0 0 8.47 -8.47 0 0 8.46 -8.46 0 0 8.47 -8.47 0 0 16.93 -8.47 0 0 8.47 -8.46 0 0 8.47 -8.47 0 0 16.93 -8.47 0 0 16.93 -8.46 0 0 16.94 -8.47 0 0 8.46 -8.47 0 0 25.4 -8.46 0 0 -8.46 -8.47 0 0 -16.94 -8.47 0 0 -16.93 -8.46 0 0 -16.93 -8.47 0 0 -8.47 -8.47 0 0 -16.93 -8.46 0 0 -8.47 -8.47 0 0 -8.47 -8.47 0 0 -8.46 -8.46 0 0 -8.47 -8.47 0 0 -8.47 -8.47 0 0 -8.46 -8.46 0 0 -8.47 -16.94 0 0 -8.47 -8.46 0 0 -8.46 -16.94 0 0 -8.47 -25.4 0 0 -8.47 -25.4 0 0 -8.46 -25.4 0 0 -8.47 -33.86 0 0 -8.47 -33.87 0 0 -8.46 -33.87 0 0 -8.47 -42.33 0 0 -8.47 -118.53 0 0 8.47 -59.27 0 0 8.47 -42.33 0 0 8.46 -25.4 0 0 8.47 -25.4 0 0 8.47 -8.47 0 0 8.46 -16.93 0 0 8.47 -8.47 0 0 8.47 -8.46 0 0 8.46 -8.47 0 0 8.47 -8.47 0 0 8.47 -8.46 0 0 8.46 -8.47 0 0 8.47 -8.47 0 0 16.93 -8.46 0 0 16.94 -8.47 0 0 16.93 -8.47 0 0 16.93 -8.46 0 0 16.94 -8.47 0 0 25.4 -8.47 0 0 25.4 -8.46 0 0 25.4 -8.47 0 0 33.86 -8.47 0 0 33.87 -8.46 0 0 59.26 -8.47 0 0 50.8 -8.47 0 0 84.67 -8.46 0 0 177.8 -8.47 0 0 135.47 -8.47 0 0 84.66 -8.46 0 0 42.33 -8.47 0 0 50.8 -8.47 0 0 50.8 -8.46 0 0 33.87 -8.47 0 0 42.33 -8.47 0 0 33.87 -8.46 0 0 42.33 -8.47 0 0 33.87 -8.47 0 0 33.87 -8.46 0 0 50.8 -8.47 0 0 228.59 8.47 0 0 118.54 8.46 0 0 101.6 8.47 0 0 76.2 8.47 0 0 67.73 8.46 0 0 50.8 8.47 0 0 50.8 8.47 0 0 42.33 8.46 0 0 42.34 8.47 0 0 25.39 8.47 0 0 25.4 8.46 0 0 25.4 8.47 0 0 16.94 8.47 0 0 16.93 8.46 0 0 25.4 8.47 0 0 16.93 8.47 0 0 16.94 8.46 0 0 16.93 8.47 0 0 16.93 8.47 0 0 16.94 8.46 0 0 16.93 8.47 0 0 8.47 8.47 0 0 8.46 8.46 0 0 16.94 8.47 0 0 8.46 16.93 0 0 8.47 8.47 0 0 8.47 16.93 0 0 8.46 25.4 0 0 8.47 118.54 0 0 -8.47 16.93 0 0 -8.46 16.93 0 0 -8.47 16.94 0 0 -8.47 16.93 0 0 -8.46 16.93 0 0 -8.47 16.93 0 0 -8.47 8.47 0 0 -8.46 16.93 0 0 -8.47 8.47 0 0 -8.47 16.93 0 0 -8.46 8.47 0 0 -8.47 16.93 0 0 -8.47 8.47 0 0 -8.46 8.47 0 0 -8.47 8.46 0 0 -8.47 16.94 0 0 -8.46 8.46 0 0 -8.47 8.47 0 0 -8.47 8.47 0 0 -8.46 16.93 0 0 -8.47 8.47 0 0 -8.47 8.46 0 0 -8.46 8.47 0 0 -8.47 8.47 0 0 -8.47 8.46 0 0 -8.46 8.47 0 0 -8.47 8.47 0 0 -8.47 8.46 0 0 -8.46 8.47 0 0 -8.47 8.47 0 0 -8.47 8.46 0 0 -8.46 8.47 0 0 -8.47 8.47 0 0 -8.47 8.46 0 0 -16.93 8.47 0 0 -8.46 8.47 0 0 -16.94 8.46 0 0 -8.46 8.47 0 0 -16.94 8.47 0 0 -8.46 8.46 0 0 -16.94 8.47 0 0 -16.93 8.47 0 0 -16.93 8.46 0 0 -8.47 8.47 0 0 -16.93 8.47 0 0 -16.94 8.46 0 0 -16.93 8.47 0 0 -16.93 8.47 0 0 -16.94 8.46 0 0 -16.93 8.47 0 0 -16.93 8.47 0 0 -25.4 8.46 0 0 -16.94 8.47 0 0 -16.93 8.47 0 0 -25.4 16.93 0 0 25.4 8.47 0 0 16.93 8.46 0 0 25.4 8.47 0 0 16.94 8.47 0 0 16.93 8.46 0 0 16.93 8.47 0 0 16.94 8.47 0 0 16.93 8.46 0 0 16.93 8.47 0 0 16.94 8.47 0 0 8.46 8.46 0 0 16.94 8.47 0 0 16.93 8.47 0 0 16.93 8.46 0 0 8.47 8.47 0 0 16.93 8.47 0 0 8.47 8.46 0 0 8.47 8.47 0 0 16.93 8.47 0 0 8.47 8.46 0 0 16.93 8.47 0 0 8.46 8.47 0 0 8.47 8.46 0 0 8.47 8.47 0 0 8.46 8.47 0 0 8.47 8.46 0 0 8.47 8.47 0 0 8.46 8.47 0 0 8.47 8.46 0 0 8.47 8.47 0 0 8.46 8.47 0 0 8.47 8.46 0 0 8.47 8.47 0 0 8.46 16.93 0 0 8.47 8.47 0 0 8.47 8.47 0 0 8.46 8.46 0 0 8.47 8.47 0 0 8.47 16.93 0 0 8.46 8.47 0 0 8.47 8.47 0 0 8.47 16.93 0 0 8.46 8.47 0 0 8.47 16.93 0 0 8.47 8.47 0 0 8.46 16.93 0 0 8.47 8.47 0 0 8.47 16.93 0 0 8.46 16.93 0 0 8.47 16.93 0 0 8.47 16.94 0 0 8.46 16.93 0 0 8.47 16.93 0 0 8.47 33.87 0 0 8.46 50.8 0 0 -8.46 42.33 0 0 -8.47 16.94 0 0 -8.47 16.93 0 0 -8.46 16.93 0 0 -8.47 8.47 0 0 -8.47 8.47 0 0 -8.46 8.46 0 0 -8.47 8.47 0 0 -16.93 8.47 0 0 -8.47 8.46 0 0 -16.93 8.47 0 0 -16.94 8.47 0 0 -16.93 8.46 0 0 -25.4 8.47 0 0 -16.93 8.47 0 0 -16.94 8.46 0 0 -16.93 8.47 0 0 -25.4 8.47 0 0 -16.93 8.46 0 0 -25.4 8.47 0 0 -25.4 8.47 0 0 -42.33 8.46 0 0 -42.34 8.47 0 0 -50.8 8.47 0 0 -59.26 8.46 0 0 -59.27 8.47 0 0 -76.2 8.47 0 0 -101.6 8.46 0 0 -110.07 8.47 0 0 -253.99 -8.47 0 0 -42.34 -8.46 0 0 -42.33 -8.47 0 0 -33.87 -8.47 0 0 -33.86 -8.46 0 0 -42.34 -8.47 0 0 -33.86 -8.47 0 0 -42.34 -8.46 0 0 -50.8 -8.47 0 0 -42.33 -8.47 0 0 -50.8 -8.46 0 0 -84.66 -8.47 0 0 -160.87 -8.47 0 0 -160.87 -8.46 0 0 -76.2 -8.47 0 0 -50.8 -8.47 0 0 -50.8 -8.46 0 0 -33.86 -8.47 0 0 -33.87 -8.47 0 0 -25.4 -8.46 0 0 -25.4 -8.47 0 0 -25.4 -8.47 0 0 -16.93 -8.46 0 0 -16.93 -8.47 0 0 -16.94 -8.47 0 0 -16.93 -8.46 0 0 -16.93 -8.47 0 0 -8.47 -8.47 0 0 -8.47 -8.46 0 0 -8.46 -8.47 0 0 -8.47 -8.47 0 0 -8.47 -8.46 0 0 -8.46 -8.47 0 0 -8.47 -16.93 0 0 -8.47 -8.47 0 0 -8.46 -16.93 0 0 -8.47 -33.87 0 0 -8.47 -59.27 0 0 -8.46 -50.8 0 0 -8.47 -101.59 0 0 8.47z"/>
 </g>
</svg>
