<?xml version="1.0" encoding="UTF-8"?>
<!DOCTYPE svg PUBLIC "-//W3C//DTD SVG 1.1//EN" "http://www.w3.org/Graphics/SVG/1.1/DTD/svg11.dtd">
<!-- Creator: CorelDRAW -->
<svg xmlns="http://www.w3.org/2000/svg" xml:space="preserve" width="38.5232mm" height="44.9578mm" version="1.1" style="shape-rendering:geometricPrecision; text-rendering:geometricPrecision; image-rendering:optimizeQuality; fill-rule:evenodd; clip-rule:evenodd"
viewBox="0 0 3852.32 4495.78"
 xmlns:xlink="http://www.w3.org/1999/xlink"
 xmlns:xodm="http://www.corel.com/coreldraw/odm/2003">
 <defs>
  <style type="text/css">
   <![CDATA[
    .fil0 {fill:black}
   ]]>
  </style>
 </defs>
 <g id="Camada_x0020_1">
  <metadata id="CorelCorpID_0Corel-Layer"/>
  <g id="_2806991555392">
   <path class="fil0" d="M1621.36 3390.88l-8.46 0 0 25.4 -8.47 0 0 42.33 -8.47 0 0 59.27 -8.46 0 0 42.33 -8.47 0 0 33.87 8.47 0 0 59.27 8.46 0 0 50.8 8.47 0 0 33.86 8.47 0 0 42.34 8.46 0 0 33.86 8.47 0 0 33.87 8.47 0 0 33.87 8.46 0 0 25.4 8.47 0 0 33.86 8.47 0 0 25.4 8.46 0 0 25.4 8.47 0 0 33.87 8.47 0 0 33.87 8.46 0 0 33.86 8.47 0 0 33.87 8.47 0 0 33.86 8.46 0 0 16.94 8.47 0 0 25.4 8.47 0 0 16.93 8.46 0 0 25.4 8.47 0 0 16.93 8.47 0 0 25.4 8.46 0 0 25.4 8.47 0 0 33.87 8.47 0 0 8.47 -8.47 0 0 8.46 -8.47 0 0 8.47 -59.26 0 0 8.47 -42.34 0 0 8.46 -33.86 0 0 8.47 -42.34 0 0 8.47 -42.33 0 0 8.46 -42.33 0 0 8.47 -42.34 0 0 8.47 -50.79 0 0 8.46 -50.8 0 0 8.47 -50.8 0 0 8.47 -50.8 0 0 8.46 -67.74 0 0 -8.46 -33.86 0 0 -8.47 8.46 0 0 -8.47 8.47 0 0 -16.93 8.47 0 0 -8.47 8.46 0 0 -8.46 8.47 0 0 -16.94 8.47 0 0 -8.46 8.46 0 0 -8.47 8.47 0 0 -8.47 8.47 0 0 -8.46 8.46 0 0 -8.47 8.47 0 0 -8.47 16.93 0 0 -8.46 8.47 0 0 -8.47 16.93 0 0 -8.47 16.94 0 0 -8.46 25.4 0 0 -8.47 93.13 0 0 8.47 33.86 0 0 8.46 25.4 0 0 8.47 33.87 0 0 8.47 33.87 0 0 8.46 110.06 0 0 -8.46 25.4 0 0 -8.47 8.47 0 0 -8.47 8.47 0 0 -8.46 8.46 0 0 -25.4 -8.46 0 0 -16.94 -8.47 0 0 -16.93 -8.47 0 0 -33.87 -8.46 0 0 -25.4 -8.47 0 0 -33.86 -8.47 0 0 -25.4 -8.46 0 0 -33.87 -8.47 0 0 -42.33 -8.47 0 0 -25.4 -8.46 0 0 -33.87 -8.47 0 0 -33.86 -8.47 0 0 -33.87 -8.46 0 0 -33.87 -8.47 0 0 -33.86 -8.47 0 0 -42.34 -8.46 0 0 -33.86 -8.47 0 0 -42.34 -8.47 0 0 -33.86 -8.46 0 0 -42.34 -8.47 0 0 -50.8 -8.47 0 0 -135.46 8.47 0 0 -59.27 8.47 0 0 -84.66 16.93 0 0 8.46 25.4 0 0 8.47 25.4 0 0 16.93 -8.47 0 0 25.4zm821.27 -76.2l16.93 0 0 -8.46 8.47 0 0 -8.47 16.93 0 0 -8.47 8.47 0 0 -8.46 8.46 0 0 -8.47 16.94 0 0 -8.47 8.46 0 0 110.07 8.47 0 0 93.13 8.47 0 0 152.4 -8.47 0 0 50.8 -8.47 0 0 42.33 -8.46 0 0 33.87 -8.47 0 0 33.87 -8.47 0 0 42.33 -8.46 0 0 33.87 -8.47 0 0 42.33 -8.47 0 0 33.87 -8.46 0 0 33.86 -8.47 0 0 33.87 -8.47 0 0 25.4 -8.46 0 0 33.87 -8.47 0 0 33.86 -8.47 0 0 33.87 -8.46 0 0 33.86 -8.47 0 0 33.87 -8.46 0 0 25.4 -8.47 0 0 25.4 -8.47 0 0 25.4 -8.46 0 0 8.47 -8.47 0 0 25.4 8.47 0 0 8.46 8.46 0 0 8.47 8.47 0 0 8.47 25.4 0 0 8.46 110.06 0 0 -8.46 33.87 0 0 -8.47 33.87 0 0 -8.47 25.4 0 0 -8.46 42.33 0 0 -8.47 84.67 0 0 8.47 25.4 0 0 8.46 16.93 0 0 8.47 16.93 0 0 8.47 16.94 0 0 8.46 8.46 0 0 8.47 8.47 0 0 8.47 8.47 0 0 8.46 8.46 0 0 8.47 8.47 0 0 8.47 8.47 0 0 8.46 8.46 0 0 8.47 8.47 0 0 16.93 8.47 0 0 8.47 8.46 0 0 16.93 8.47 0 0 8.47 8.47 0 0 8.47 -33.87 0 0 8.46 -59.27 0 0 -8.46 -59.26 0 0 -8.47 -50.8 0 0 -8.47 -50.8 0 0 -8.46 -50.8 0 0 -8.47 -42.34 0 0 -8.47 -42.33 0 0 -8.46 -42.33 0 0 -8.47 -42.34 0 0 -8.47 -33.86 0 0 -8.46 -42.33 0 0 -8.47 -59.27 0 0 -8.47 -8.47 0 0 -50.8 8.47 0 0 -25.4 8.47 0 0 -16.93 8.46 0 0 -25.4 8.47 0 0 -16.93 8.47 0 0 -25.4 8.46 0 0 -16.94 8.47 0 0 -25.4 8.47 0 0 -25.4 8.46 0 0 -33.86 8.47 0 0 -33.87 8.47 0 0 -42.33 8.46 0 0 -25.4 8.47 0 0 -33.87 8.46 0 0 -25.4 8.47 0 0 -25.4 8.47 0 0 -25.4 8.46 0 0 -33.86 8.47 0 0 -33.87 8.47 0 0 -33.87 8.46 0 0 -33.86 8.47 0 0 -50.8 8.47 0 0 -42.34 8.46 0 0 -50.8 8.47 0 0 -59.26 -8.47 0 0 -42.34 -8.46 0 0 -42.33 -8.47 0 0 -59.27 -8.47 0 0 -25.4 -8.46 0 0 -25.39 -8.47 0 0 -16.94 -8.47 0 0 -16.93 -8.46 0 0 -8.47zm-1032.93 -313.26l-8.47 0 0 -8.47 8.47 0 0 8.47zm0 0l16.93 0 0 8.46 50.8 0 0 8.47 59.27 0 0 8.47 25.4 0 0 8.46 25.4 0 0 8.47 25.4 0 0 8.47 25.4 0 0 8.46 25.4 0 0 8.47 93.13 0 0 8.47 186.27 0 0 -8.47 67.73 0 0 -8.47 67.73 0 0 -8.46 59.27 0 0 -8.47 59.27 0 0 -8.47 50.8 0 0 -8.46 42.33 0 0 -8.47 33.87 0 0 -8.47 33.86 0 0 -8.46 33.87 0 0 -8.47 33.86 0 0 -8.47 33.87 0 0 -8.46 25.4 0 0 -8.47 25.4 0 0 -8.47 25.4 0 0 -8.46 25.4 0 0 -8.47 25.4 0 0 -8.47 16.93 0 0 -8.46 33.87 0 0 8.46 -8.47 0 0 67.74 -8.46 0 0 42.33 -8.47 0 0 33.87 -8.47 0 0 33.86 -8.46 0 0 25.4 -8.47 0 0 8.47 -8.47 0 0 16.93 -8.46 0 0 8.47 -8.47 0 0 8.47 -8.47 0 0 16.93 -8.46 0 0 8.47 -16.94 0 0 16.93 -8.46 0 0 8.47 -8.47 0 0 8.46 -8.47 0 0 8.47 -16.93 0 0 8.47 -8.47 0 0 8.46 -8.46 0 0 8.47 -16.94 0 0 8.47 -16.93 0 0 8.46 -8.47 0 0 8.47 -16.93 0 0 8.47 -16.93 0 0 8.46 -16.93 0 0 8.47 -16.94 0 0 8.47 -25.4 0 0 8.46 -33.86 0 0 8.47 -42.34 0 0 8.47 -67.73 0 0 8.46 -220.13 0 0 -8.46 -93.14 0 0 -8.47 -76.2 0 0 -8.47 -76.2 0 0 -8.46 -50.8 0 0 -8.47 -42.33 0 0 -8.47 -25.4 0 0 -8.46 -25.4 0 0 -8.47 -16.93 0 0 -8.47 -8.47 0 0 -8.46 -16.93 0 0 -16.94 -8.47 0 0 -8.46 -8.47 0 0 -8.47 -8.46 0 0 -8.47 -8.47 0 0 -16.93 -8.47 0 0 -16.93 -8.46 0 0 -16.94 -8.47 0 0 -16.93 -8.47 0 0 -16.93 -8.46 0 0 -8.47 -8.47 0 0 -16.93 -8.47 0 0 -16.94 -8.46 0 0 -16.93 -8.47 0 0 -25.4 -8.46 0 0 -33.87 -8.47 0 0 -33.86zm1236.13 -152.4l-8.47 0 0 42.33 -25.4 0 0 8.47 -25.4 0 0 8.46 -16.93 0 0 8.47 -33.87 0 0 8.47 -25.4 0 0 8.46 -25.4 0 0 8.47 -25.4 0 0 8.47 -25.4 0 0 8.46 -33.86 0 0 8.47 -33.87 0 0 8.47 -33.87 0 0 8.46 -42.33 0 0 8.47 -33.87 0 0 8.47 -42.33 0 0 8.46 -50.8 0 0 8.47 -50.8 0 0 8.47 -67.73 0 0 8.46 -76.2 0 0 8.47 -279.4 0 0 -8.47 -33.87 0 0 -8.46 -25.4 0 0 -8.47 -25.4 0 0 -8.47 -16.93 0 0 -8.46 -25.4 0 0 -8.47 -25.4 0 0 -8.47 -67.74 0 0 -8.46 -50.79 0 0 -8.47 -8.47 0 0 -8.47 -16.93 0 0 -42.33 -8.47 0 0 -50.8 -8.47 0 0 -59.27 -8.46 0 0 -67.73 -8.47 0 0 -50.8 8.47 0 0 8.47 25.4 0 0 8.46 16.93 0 0 8.47 25.4 0 0 8.47 33.86 0 0 8.46 33.87 0 0 8.47 42.33 0 0 8.47 50.8 0 0 8.46 76.2 0 0 8.47 118.54 0 0 8.47 347.13 0 0 -8.47 42.33 0 0 -8.47 33.87 0 0 -8.46 25.4 0 0 -8.47 33.87 0 0 -8.47 25.4 0 0 -8.46 16.93 0 0 -8.47 25.4 0 0 -8.47 33.87 0 0 -8.46 42.33 0 0 -8.47 25.4 0 0 -8.47 25.4 0 0 -8.46 16.93 0 0 -8.47 16.93 0 0 -8.47 8.47 0 0 -8.46 8.47 0 0 -8.47 16.93 0 0 -8.47 8.47 0 0 -8.46 16.93 0 0 -8.47 8.47 0 0 -8.46 16.93 0 0 -8.47 8.47 0 0 -8.47 8.46 0 0 -8.46 16.94 0 0 -8.47 8.46 0 0 -8.47 8.47 0 0 -8.46 16.93 0 0 76.19 -8.46 0 0 220.14zm-1337.73 -254l8.47 0 0 25.4 -8.47 0 0 -25.4zm8.47 -287.87l16.93 0 0 8.47 25.4 0 0 8.47 16.93 0 0 8.46 33.87 0 0 8.47 93.13 0 0 8.47 440.27 0 0 -8.47 93.13 0 0 -8.47 84.67 0 0 -8.46 76.2 0 0 -8.47 84.66 0 0 -8.47 59.27 0 0 -8.46 50.8 0 0 -8.47 42.33 0 0 -8.47 33.87 0 0 -8.46 25.4 0 0 -8.47 16.93 0 0 -8.47 25.4 0 0 -8.46 16.93 0 0 -8.47 16.94 0 0 -8.47 16.93 0 0 -8.46 16.93 0 0 -8.47 16.94 0 0 -8.47 8.46 0 0 -8.46 8.47 0 0 33.86 8.47 0 0 194.74 8.46 0 0 84.66 -8.46 0 0 8.47 -8.47 0 0 8.47 -8.47 0 0 8.46 -16.93 0 0 8.47 -8.47 0 0 8.47 -16.93 0 0 8.46 -8.47 0 0 8.47 -16.93 0 0 8.47 -8.47 0 0 8.46 -8.46 0 0 8.47 -16.94 0 0 8.47 -8.46 0 0 8.46 -16.94 0 0 8.47 -8.46 0 0 8.46 -16.94 0 0 8.47 -8.46 0 0 8.47 -16.94 0 0 8.46 -25.4 0 0 8.47 -25.39 0 0 8.47 -50.8 0 0 8.46 -25.4 0 0 8.47 -25.4 0 0 8.47 -25.4 0 0 8.46 -25.4 0 0 8.47 -25.4 0 0 8.47 -25.4 0 0 8.46 -42.34 0 0 8.47 -101.6 0 0 8.47 -127 0 0 -8.47 -177.8 0 0 -8.47 -110.06 0 0 -8.46 -59.27 0 0 -8.47 -42.33 0 0 -8.47 -42.34 0 0 -8.46 -25.4 0 0 -8.47 -33.86 0 0 -8.47 -25.4 0 0 -8.46 -25.4 0 0 -8.47 -16.93 0 0 -8.47 -16.94 0 0 -59.26 -8.46 0 0 -76.2 -8.47 0 0 -76.2 -8.47 0 0 -110.07 -8.46 0 0 -25.4zm1303.86 -127l-16.94 0 0 8.47 -16.93 0 0 8.47 -16.93 0 0 8.46 -16.94 0 0 8.47 -16.93 0 0 8.47 -25.4 0 0 8.46 -16.93 0 0 8.47 -16.94 0 0 8.47 -42.33 0 0 8.46 -33.86 0 0 8.47 -50.8 0 0 8.47 -50.8 0 0 8.46 -67.74 0 0 8.47 -76.2 0 0 8.47 -84.66 0 0 8.46 -110.07 0 0 8.47 -118.53 0 0 8.47 -16.94 0 0 -8.47 -355.6 0 0 -8.47 -67.73 0 0 -8.46 -25.4 0 0 -8.47 -25.4 0 0 -8.47 -16.93 0 0 -8.46 -8.47 0 0 -8.47 -8.46 0 0 -177.8 8.46 0 0 -76.2 8.47 0 0 -160.86 8.47 0 0 8.46 8.46 0 0 8.47 16.94 0 0 8.47 8.46 0 0 8.46 25.4 0 0 8.47 16.94 0 0 8.46 25.39 0 0 8.47 16.94 0 0 8.47 33.86 0 0 8.46 33.87 0 0 8.47 42.33 0 0 8.47 59.27 0 0 8.46 110.07 0 0 8.47 448.73 0 0 -8.47 76.2 0 0 -8.46 42.33 0 0 -8.47 42.34 0 0 -8.47 25.4 0 0 -8.46 33.86 0 0 -8.47 16.93 0 0 -8.47 25.4 0 0 -8.46 25.4 0 0 -8.47 16.94 0 0 -8.46 16.93 0 0 -8.47 25.4 0 0 -8.47 16.93 0 0 -8.46 16.94 0 0 -8.47 16.93 0 0 -8.47 16.93 0 0 110.07 8.47 0 0 84.66 8.47 0 0 76.2 8.46 0 0 50.8 8.47 0 0 16.94 -16.93 0 0 8.46zm25.4 -152.4l8.46 0 0 -8.46 25.4 0 0 -8.47 59.27 0 0 -8.47 42.33 0 0 8.47 67.74 0 0 8.47 25.4 0 0 8.46 16.93 0 0 8.47 16.93 0 0 8.47 16.94 0 0 8.46 8.46 0 0 8.47 16.94 0 0 8.47 8.46 0 0 8.46 16.94 0 0 8.47 16.93 0 0 8.47 8.47 0 0 8.46 16.93 0 0 8.47 8.47 0 0 8.47 16.93 0 0 8.46 16.93 0 0 8.47 16.94 0 0 8.47 16.93 0 0 8.46 16.93 0 0 8.47 16.94 0 0 8.47 8.46 0 0 8.46 16.94 0 0 8.47 25.4 0 0 8.47 16.93 0 0 8.46 16.93 0 0 8.47 16.94 0 0 8.47 8.46 0 0 16.93 8.47 0 0 25.4 -8.47 0 0 8.47 -8.46 0 0 8.46 -8.47 0 0 8.47 -16.93 0 0 8.47 -16.94 0 0 8.46 -25.4 0 0 8.47 -25.4 0 0 8.47 -25.4 0 0 8.46 -33.86 0 0 8.47 -42.34 0 0 8.47 -33.86 0 0 8.46 -50.8 0 0 8.47 -50.8 0 0 8.47 -50.8 0 0 8.46 -16.94 0 0 8.47 -25.4 0 0 8.47 -16.93 0 0 8.46 -16.93 0 0 8.47 -16.94 0 0 8.47 -16.93 0 0 8.46 -16.93 0 0 8.47 -8.47 0 0 8.47 -8.47 0 0 8.46 -8.46 0 0 16.94 -8.47 0 0 25.4 -8.47 0 0 -211.67 -8.46 0 0 -110.07 -8.47 0 0 -67.73 -8.47 0 0 -67.73 -8.46 0 0 -16.94zm-1354.66 152.4l-8.47 0 0 59.27 8.47 0 0 169.33 8.46 0 0 59.27 -8.46 0 0 -16.93 -8.47 0 0 -8.47 -16.93 0 0 -8.47 -8.47 0 0 -8.46 -16.93 0 0 -8.47 -16.94 0 0 -8.47 -16.93 0 0 -8.46 -25.4 0 0 -8.47 -16.93 0 0 -8.47 -25.4 0 0 -8.46 -50.8 0 0 -8.47 -50.8 0 0 -8.47 -50.8 0 0 -8.46 -33.87 0 0 -8.47 -42.33 0 0 -8.47 -33.87 0 0 -8.46 -25.4 0 0 -8.47 -25.4 0 0 -8.47 -25.4 0 0 -8.46 -16.93 0 0 -8.47 -16.94 0 0 -8.47 -8.46 0 0 -16.93 -8.47 0 0 -8.47 -8.47 0 0 -8.46 8.47 0 0 -16.94 8.47 0 0 -8.46 8.46 0 0 -8.47 8.47 0 0 -8.47 16.93 0 0 -8.46 25.4 0 0 -8.47 16.94 0 0 -8.47 16.93 0 0 -8.46 16.93 0 0 -8.47 16.94 0 0 -8.47 16.93 0 0 -8.46 8.47 0 0 -8.47 16.93 0 0 -8.47 16.93 0 0 -8.46 16.94 0 0 -8.47 8.46 0 0 -8.47 16.94 0 0 -8.46 16.93 0 0 -8.47 8.47 0 0 -8.47 16.93 0 0 -8.46 16.93 0 0 -8.47 8.47 0 0 -8.47 16.93 0 0 -8.46 8.47 0 0 -8.47 16.93 0 0 -8.47 16.94 0 0 -8.46 25.4 0 0 -8.47 42.33 0 0 -8.47 50.8 0 0 8.47 33.87 0 0 8.47 16.93 0 0 8.46 16.93 0 0 8.47 -8.46 0 0 143.93zm1346.19 -304.79l16.93 0 0 8.46 25.4 0 0 8.47 33.87 0 0 8.46 25.4 0 0 8.47 25.4 0 0 8.47 16.93 0 0 8.46 25.4 0 0 8.47 25.4 0 0 8.47 16.94 0 0 8.46 25.4 0 0 8.47 16.93 0 0 8.47 25.4 0 0 8.46 16.93 0 0 8.47 16.94 0 0 8.47 16.93 0 0 8.46 16.93 0 0 8.47 25.4 0 0 8.47 16.94 0 0 8.46 8.46 0 0 8.47 16.94 0 0 8.47 16.93 0 0 8.46 16.93 0 0 8.47 16.94 0 0 8.47 16.93 0 0 8.46 8.47 0 0 8.47 16.93 0 0 8.47 8.47 0 0 8.46 16.93 0 0 8.47 8.47 0 0 8.47 16.93 0 0 8.46 8.47 0 0 8.47 16.93 0 0 8.47 8.47 0 0 8.46 16.93 0 0 8.47 8.47 0 0 8.47 8.46 0 0 8.46 16.94 0 0 8.47 8.46 0 0 8.47 8.47 0 0 8.46 8.47 0 0 8.47 8.46 0 0 8.47 8.47 0 0 8.46 8.47 0 0 8.47 8.46 0 0 8.47 8.47 0 0 42.33 -8.47 0 0 16.93 -8.46 0 0 8.47 -8.47 0 0 8.47 -8.47 0 0 16.93 -16.93 0 0 8.47 -16.93 0 0 8.46 -25.4 0 0 8.47 -50.8 0 0 8.47 -59.27 0 0 8.46 -50.8 0 0 8.47 -59.27 0 0 8.47 -50.8 0 0 8.46 -42.33 0 0 8.47 -33.87 0 0 8.47 -25.4 0 0 8.46 -33.86 0 0 8.47 -16.94 0 0 8.47 -16.93 0 0 8.46 -16.93 0 0 8.47 -8.47 0 0 8.47 -8.47 0 0 8.46 -8.46 0 0 8.47 -8.47 0 0 16.93 -8.47 0 0 16.94 -8.46 0 0 42.33 8.46 0 0 42.33 8.47 0 0 50.8 8.47 0 0 8.47 101.6 0 0 -8.47 33.86 0 0 -8.47 25.4 0 0 -8.46 25.4 0 0 -8.47 16.94 0 0 -8.47 16.93 0 0 -8.46 8.47 0 0 25.4 -8.47 0 0 8.46 -8.47 0 0 8.47 -16.93 0 0 8.47 -16.93 0 0 8.46 -25.4 0 0 8.47 -33.87 0 0 8.47 -169.33 0 0 -8.47 -8.47 0 0 -8.47 -8.47 0 0 -25.4 8.47 0 0 -33.86 8.47 0 0 -127 8.46 0 0 -16.93 8.47 0 0 -8.47 16.93 0 0 -8.47 8.47 0 0 -8.46 16.93 0 0 -8.47 25.4 0 0 -8.47 25.4 0 0 -8.46 16.94 0 0 -8.47 25.4 0 0 -8.47 59.26 0 0 -8.46 42.34 0 0 -8.47 42.33 0 0 -8.47 42.33 0 0 -8.46 50.8 0 0 -8.47 25.4 0 0 -8.47 25.4 0 0 -8.46 25.4 0 0 -8.47 16.94 0 0 -8.47 16.93 0 0 -8.46 16.93 0 0 -8.47 16.94 0 0 -8.47 8.46 0 0 -16.93 8.47 0 0 -8.47 8.47 0 0 -25.4 8.46 0 0 -25.4 -8.46 0 0 -16.93 -8.47 0 0 -8.47 -8.47 0 0 -8.46 -8.46 0 0 -8.47 -8.47 0 0 -8.47 -16.93 0 0 -8.46 -16.94 0 0 -8.47 -16.93 0 0 -8.47 -16.93 0 0 -8.46 -16.94 0 0 -8.47 -16.93 0 0 -8.47 -16.93 0 0 -8.46 -16.94 0 0 -8.47 -16.93 0 0 -8.47 -16.93 0 0 -8.46 -8.47 0 0 -8.47 -16.93 0 0 -8.47 -16.94 0 0 -8.46 -16.93 0 0 -8.47 -8.47 0 0 -8.47 -16.93 0 0 -8.46 -8.47 0 0 -8.47 -16.93 0 0 -8.47 -8.47 0 0 -8.46 -16.93 0 0 -8.47 -16.93 0 0 -8.47 -16.94 0 0 -8.46 -16.93 0 0 -8.47 -25.4 0 0 -8.47 -25.4 0 0 -8.46 -152.4 0 0 8.46 -33.87 0 0 8.47 -8.46 0 0 -25.4 -8.47 0 0 -84.66zm-1447.79 93.13l-50.8 0 0 8.46 -25.4 0 0 8.47 -16.94 0 0 8.47 -16.93 0 0 8.46 -16.93 0 0 8.47 -16.94 0 0 8.47 -8.46 0 0 8.46 -16.94 0 0 8.47 -8.46 0 0 8.47 -16.94 0 0 8.46 -8.46 0 0 8.47 -16.94 0 0 8.47 -16.93 0 0 8.46 -8.47 0 0 8.47 -16.93 0 0 8.47 -16.93 0 0 8.46 -16.94 0 0 8.47 -8.46 0 0 8.47 -16.94 0 0 8.46 -25.4 0 0 8.47 -16.93 0 0 8.47 -16.93 0 0 8.46 -16.94 0 0 8.47 -16.93 0 0 8.47 -16.93 0 0 8.46 -8.47 0 0 8.47 -16.93 0 0 8.47 -8.47 0 0 8.46 -8.47 0 0 16.94 -8.46 0 0 50.8 8.46 0 0 16.93 8.47 0 0 8.47 8.47 0 0 8.46 8.46 0 0 8.47 8.47 0 0 8.47 16.93 0 0 8.46 16.94 0 0 8.47 16.93 0 0 8.47 25.4 0 0 8.46 25.4 0 0 8.47 33.87 0 0 8.47 42.33 0 0 8.46 42.33 0 0 8.47 42.34 0 0 8.47 50.8 0 0 8.46 50.8 0 0 8.47 25.4 0 0 8.47 25.4 0 0 8.46 25.4 0 0 8.47 16.93 0 0 8.47 16.93 0 0 8.46 16.94 0 0 8.47 8.46 0 0 8.47 8.47 0 0 8.46 8.47 0 0 25.4 8.46 0 0 127 8.47 0 0 50.8 -8.47 0 0 8.47 -177.8 0 0 -8.47 -33.86 0 0 -8.47 -25.4 0 0 -8.46 -16.94 0 0 -8.47 -16.93 0 0 -8.47 25.4 0 0 8.47 25.4 0 0 8.47 25.4 0 0 8.46 118.53 0 0 -8.46 16.94 0 0 -8.47 8.46 0 0 -8.47 8.47 0 0 -67.73 8.47 0 0 -67.73 -8.47 0 0 -16.93 -8.47 0 0 -8.47 -8.46 0 0 -16.93 -16.94 0 0 -8.47 -8.46 0 0 -8.47 -8.47 0 0 -8.46 -16.93 0 0 -8.47 -25.4 0 0 -8.47 -25.4 0 0 -8.46 -33.87 0 0 -8.47 -33.87 0 0 -8.47 -42.33 0 0 -8.46 -50.8 0 0 -8.47 -59.27 0 0 -8.47 -50.8 0 0 -8.46 -59.26 0 0 -8.47 -42.34 0 0 -8.47 -33.86 0 0 -8.46 -16.94 0 0 -8.47 -8.46 0 0 -8.47 -8.47 0 0 -8.46 -8.47 0 0 -8.47 -8.46 0 0 -16.93 -8.47 0 0 -16.94 -8.47 0 0 -25.4 8.47 0 0 -16.93 8.47 0 0 -8.47 8.46 0 0 -8.46 8.47 0 0 -8.47 8.47 0 0 -8.47 8.46 0 0 -8.46 16.94 0 0 -8.47 8.46 0 0 -8.47 8.47 0 0 -8.46 8.47 0 0 -8.47 16.93 0 0 -8.47 8.47 0 0 -8.46 8.46 0 0 -8.47 16.94 0 0 -8.47 8.46 0 0 -8.46 16.94 0 0 -8.47 16.93 0 0 -8.47 8.47 0 0 -8.46 8.46 0 0 -8.47 16.94 0 0 -8.47 16.93 0 0 -8.46 16.93 0 0 -8.47 8.47 0 0 -8.47 16.93 0 0 -8.46 16.94 0 0 -8.47 16.93 0 0 -8.47 16.93 0 0 -8.46 16.94 0 0 -8.47 16.93 0 0 -8.47 16.93 0 0 -8.46 16.94 0 0 -8.47 25.4 0 0 -8.47 16.93 0 0 -8.46 16.93 0 0 -8.47 25.4 0 0 -8.47 25.4 0 0 -8.46 25.4 0 0 -8.47 16.94 0 0 -8.47 25.4 0 0 -8.46 33.86 0 0 -8.47 25.4 0 0 -8.47 25.4 0 0 84.67 -16.93 0 0 -8.47 -16.93 0 0 -8.46 -42.34 0 0 -8.47 -33.86 0 0 8.47zm1405.46 -228.6l8.46 0 0 50.8 -8.46 0 0 8.47 -8.47 0 0 8.46 -16.93 0 0 8.47 -16.94 0 0 8.47 -25.4 0 0 8.46 -16.93 0 0 8.47 -16.93 0 0 8.47 -16.94 0 0 8.46 -16.93 0 0 8.47 -25.4 0 0 8.47 -25.4 0 0 8.46 -25.4 0 0 8.47 -33.86 0 0 8.46 -33.87 0 0 8.47 -42.33 0 0 8.47 -50.8 0 0 8.46 -118.54 0 0 8.47 -254 0 0 -8.47 -152.4 0 0 -8.46 -76.2 0 0 -8.47 -59.26 0 0 -8.47 -42.34 0 0 -8.46 -33.86 0 0 -8.47 -33.87 0 0 -8.46 -16.93 0 0 -8.47 -16.93 0 0 -8.47 -16.94 0 0 -8.46 -16.93 0 0 -8.47 -16.93 0 0 -8.47 -8.47 0 0 -8.46 -16.93 0 0 -8.47 -8.47 0 0 -50.8 8.47 0 0 -50.8 8.46 0 0 -33.87 8.47 0 0 -33.86 8.47 0 0 -25.4 8.46 0 0 -25.4 8.47 0 0 -16.94 8.47 0 0 -16.93 8.46 0 0 -8.47 8.47 0 0 -8.46 8.47 0 0 -16.94 8.46 0 0 -8.46 16.93 0 0 -8.47 8.47 0 0 -8.47 25.4 0 0 8.47 16.93 0 0 8.47 16.94 0 0 8.46 25.4 0 0 8.47 16.93 0 0 8.47 16.93 0 0 8.46 16.94 0 0 8.47 25.4 0 0 8.47 25.4 0 0 8.46 25.4 0 0 8.47 42.33 0 0 8.47 33.87 0 0 8.46 59.26 0 0 8.47 228.6 0 0 -8.47 42.34 0 0 -8.46 42.33 0 0 -8.47 33.87 0 0 -8.47 25.4 0 0 -8.46 25.4 0 0 -8.47 25.4 0 0 -8.47 16.93 0 0 -8.46 16.93 0 0 -8.47 16.94 0 0 -8.47 25.4 0 0 -8.46 16.93 0 0 -8.47 16.93 0 0 -8.47 8.47 0 0 -8.46 16.93 0 0 -8.47 8.47 0 0 -8.47 16.93 0 0 -8.46 8.47 0 0 -8.47 16.93 0 0 -8.47 16.93 0 0 -8.46 8.47 0 0 -8.47 8.47 0 0 -8.47 8.46 0 0 -16.93 8.47 0 0 -8.47 8.47 0 0 -8.46 8.46 0 0 -16.94 16.94 0 0 8.47 8.46 0 0 8.47 8.47 0 0 8.46 8.47 0 0 8.47 8.46 0 0 16.93 8.47 0 0 8.47 8.47 0 0 16.93 8.46 0 0 16.94 8.47 0 0 25.4 8.47 0 0 33.86 8.46 0 0 42.34 8.47 0 0 67.73 8.47 0 0 76.2 8.46 0 0 8.47 -8.46 0 0 16.93zm973.66 -524.93l8.47 0 0 16.93 8.46 0 0 16.93 8.47 0 0 8.47 8.47 0 0 25.4 8.46 0 0 8.47 -16.93 0 0 -8.47 -8.47 0 0 -16.93 -8.46 0 0 -25.4 -8.47 0 0 -25.4zm-3335.85 0l0 -8.47 8.46 0 0 8.47 -8.46 0zm2294.45 -42.34l-8.46 0 0 33.87 -8.47 0 0 33.87 -8.47 0 0 25.4 -8.46 0 0 16.93 -8.47 0 0 33.87 -8.47 0 0 16.93 -8.46 0 0 16.93 -8.47 0 0 8.47 -8.47 0 0 16.93 -8.46 0 0 8.47 -8.47 0 0 16.93 -8.47 0 0 8.47 -8.46 0 0 8.47 -8.47 0 0 8.46 -16.93 0 0 8.47 -16.93 0 0 8.47 -8.47 0 0 8.46 -8.47 0 0 8.47 -16.93 0 0 8.47 -16.93 0 0 8.46 -16.94 0 0 8.47 -8.46 0 0 8.47 -16.94 0 0 8.46 -25.4 0 0 8.47 -16.93 0 0 8.47 -25.4 0 0 8.46 -16.93 0 0 8.47 -16.94 0 0 8.47 -33.86 0 0 8.46 -25.4 0 0 8.47 -33.87 0 0 8.47 -42.33 0 0 8.46 -84.67 0 0 8.47 -93.13 0 0 -8.47 -93.14 0 0 -8.46 -42.33 0 0 -8.47 -33.87 0 0 -8.47 -33.86 0 0 -8.46 -25.4 0 0 -8.47 -25.4 0 0 -8.47 -16.94 0 0 -8.46 -33.86 0 0 -8.47 -16.94 0 0 -8.47 -16.93 0 0 -8.46 -16.93 0 0 -8.47 -16.94 0 0 -8.47 -16.93 0 0 -8.46 -8.47 0 0 -8.47 -16.93 0 0 -8.47 -16.93 0 0 -8.46 -8.47 0 0 -8.47 -8.46 0 0 -16.93 -8.47 0 0 -8.47 -8.47 0 0 -8.47 -8.46 0 0 -16.93 -8.47 0 0 -33.87 -8.47 0 0 -76.2 -8.46 0 0 -50.8 8.46 0 0 -101.59 8.47 0 0 -50.8 8.47 0 0 -33.87 8.46 0 0 -42.33 8.47 0 0 -25.4 8.47 0 0 -33.87 8.46 0 0 -16.93 8.47 0 0 -16.94 8.46 0 0 -25.4 8.47 0 0 -8.46 8.47 0 0 -16.94 8.46 0 0 -8.46 8.47 0 0 -16.94 8.47 0 0 -8.46 8.46 0 0 -8.47 8.47 0 0 -8.47 16.93 0 0 -8.46 8.47 0 0 -8.47 8.47 0 0 -8.47 8.46 0 0 -8.46 8.47 0 0 -8.47 16.93 0 0 -8.47 8.47 0 0 -8.46 16.93 0 0 -8.47 8.47 0 0 -8.47 8.47 0 0 -8.46 16.93 0 0 -8.47 8.47 0 0 -8.47 16.93 0 0 -8.46 8.47 0 0 -8.47 16.93 0 0 -8.47 16.93 0 0 -8.46 16.94 0 0 -8.47 16.93 0 0 -8.47 25.4 0 0 -8.46 25.4 0 0 -8.47 33.87 0 0 -8.47 59.26 0 0 -8.46 186.27 0 0 8.46 67.73 0 0 8.47 59.27 0 0 8.47 42.33 0 0 8.46 33.87 0 0 8.47 16.93 0 0 8.47 8.47 0 0 8.46 16.93 0 0 8.47 8.47 0 0 8.47 8.47 0 0 8.46 8.46 0 0 8.47 16.94 0 0 8.47 8.46 0 0 8.46 8.47 0 0 8.47 8.47 0 0 8.47 8.46 0 0 8.46 8.47 0 0 8.47 8.47 0 0 8.47 8.46 0 0 8.46 8.47 0 0 8.47 8.46 0 0 16.93 8.47 0 0 8.47 8.47 0 0 8.47 8.46 0 0 8.46 8.47 0 0 16.94 8.47 0 0 8.46 8.46 0 0 16.94 8.47 0 0 16.93 8.47 0 0 16.93 8.46 0 0 16.94 8.47 0 0 25.4 8.47 0 0 33.86 8.46 0 0 50.8 8.47 0 0 76.2 -8.47 0 0 67.73zm-2252.12 -143.93l16.93 0 0 8.47 25.4 0 0 8.47 8.47 0 0 8.46 16.93 0 0 8.47 8.47 0 0 8.47 8.47 0 0 8.46 8.46 0 0 8.47 8.47 0 0 8.47 8.47 0 0 8.46 8.46 0 0 8.47 8.47 0 0 8.47 8.47 0 0 8.46 8.46 0 0 8.47 8.47 0 0 8.46 8.47 0 0 8.47 8.46 0 0 8.47 8.47 0 0 8.46 8.47 0 0 8.47 8.46 0 0 8.47 16.93 0 0 8.46 8.47 0 0 8.47 8.47 0 0 8.47 8.46 0 0 8.46 16.94 0 0 8.47 8.46 0 0 8.47 8.47 0 0 8.46 16.93 0 0 8.47 8.47 0 0 8.47 16.93 0 0 8.46 8.47 0 0 8.47 16.93 0 0 8.47 8.47 0 0 8.46 16.93 0 0 8.47 8.47 0 0 8.47 8.47 0 0 8.46 16.93 0 0 8.47 16.93 0 0 8.47 8.47 0 0 8.46 16.93 0 0 8.47 8.47 0 0 8.47 16.93 0 0 8.46 8.47 0 0 8.47 16.93 0 0 8.47 8.47 0 0 8.46 16.93 0 0 8.47 16.94 0 0 8.47 16.93 0 0 8.46 8.47 0 0 8.47 16.93 0 0 8.47 8.47 0 0 8.46 16.93 0 0 8.47 8.47 0 0 8.47 16.93 0 0 8.46 16.93 0 0 8.47 25.4 0 0 8.47 16.94 0 0 8.46 25.4 0 0 8.47 25.4 0 0 8.47 25.4 0 0 8.46 33.86 0 0 8.47 25.4 0 0 8.47 25.4 0 0 8.46 25.4 0 0 8.47 25.4 0 0 8.47 25.4 0 0 8.46 25.4 0 0 8.47 33.87 0 0 8.47 25.4 0 0 8.46 16.93 0 0 8.47 25.4 0 0 8.47 16.94 0 0 8.46 -8.47 0 0 25.4 -8.47 0 0 16.94 -8.46 0 0 -8.47 -25.4 0 0 -8.47 -25.4 0 0 -8.46 -25.4 0 0 -8.47 -33.87 0 0 -8.47 -25.4 0 0 -8.46 -16.93 0 0 -8.47 -16.94 0 0 -8.47 -25.4 0 0 -8.46 -16.93 0 0 -8.47 -16.93 0 0 -8.47 -25.4 0 0 -8.46 -16.94 0 0 -8.47 -25.4 0 0 -8.47 -16.93 0 0 -8.46 -16.93 0 0 -8.47 -25.4 0 0 -8.47 -16.94 0 0 -8.46 -16.93 0 0 -8.47 -25.4 0 0 -8.47 -16.93 0 0 -8.46 -16.94 0 0 -8.47 -16.93 0 0 -8.47 -16.93 0 0 -8.46 -16.94 0 0 -8.47 -16.93 0 0 -8.47 -8.47 0 0 -8.46 -8.46 0 0 -8.47 -16.94 0 0 -8.47 -8.46 0 0 -8.46 -8.47 0 0 -8.47 -8.47 0 0 -8.47 -16.93 0 0 -8.46 -8.47 0 0 -8.47 -8.46 0 0 -8.47 -8.47 0 0 -8.46 -16.93 0 0 -8.47 -16.94 0 0 -8.47 -16.93 0 0 -8.46 -8.47 0 0 -8.47 -8.46 0 0 -8.47 -8.47 0 0 -8.46 -16.93 0 0 -8.47 -8.47 0 0 -8.47 -16.93 0 0 -8.46 -8.47 0 0 -8.47 -16.93 0 0 -8.47 -16.94 0 0 -8.46 -8.46 0 0 -8.47 -16.94 0 0 -8.47 -8.46 0 0 -8.46 -16.94 0 0 -8.47 -16.93 0 0 -8.47 -42.33 0 0 8.47 -8.47 0 0 25.4 -8.46 0 0 25.4 -8.47 0 0 8.47 -8.47 0 0 16.93 -16.93 0 0 8.47 -16.93 0 0 -25.4 8.46 0 0 -16.94 8.47 0 0 -8.46 8.47 0 0 -16.94 8.46 0 0 -33.86 -16.93 0 0 -8.47 -8.47 0 0 8.47 -16.93 0 0 8.46 -8.47 0 0 8.47 -16.93 0 0 8.47 -8.47 0 0 8.46 -16.93 0 0 8.47 -8.47 0 0 8.47 -16.93 0 0 8.46 -8.47 0 0 8.47 -16.93 0 0 8.47 -8.47 0 0 8.46 -16.93 0 0 -25.4 8.47 0 0 -8.46 8.46 0 0 -8.47 8.47 0 0 -8.47 16.93 0 0 -8.46 8.47 0 0 -8.47 8.47 0 0 -8.47 16.93 0 0 -8.46 8.47 0 0 -8.47 8.46 0 0 -33.87 -152.4 0 0 -8.46 25.4 0 0 -8.47 160.87 0 0 -8.47 8.47 0 0 -25.39 -8.47 0 0 -16.94 -8.47 0 0 -8.46 -8.46 0 0 -16.94 -8.47 0 0 -8.46 -8.47 0 0 -8.47 -16.93 0 0 -8.47 -8.47 0 0 -8.46 -8.46 0 0 -8.47 -8.47 0 0 -8.47zm-245.53 -59.26l8.46 0 0 -33.87 8.47 0 0 -8.47 8.47 0 0 -25.4 8.46 0 0 -8.46 8.47 0 0 -16.94 8.47 0 0 -8.46 8.46 0 0 -8.47 8.47 0 0 -8.47 8.47 0 0 8.47 8.46 0 0 33.87 8.47 0 0 25.4 8.47 0 0 42.33 8.46 0 0 84.67 -8.46 0 0 8.46 -59.27 0 0 -8.46 -33.87 0 0 -8.47 -8.46 0 0 -67.73zm245.53 59.26l-8.47 0 0 -8.46 8.47 0 0 8.46zm3293.52 186.27l-8.47 0 0 -8.47 -8.46 0 0 -16.93 -33.87 0 0 8.46 -16.93 0 0 8.47 -16.94 0 0 8.47 -16.93 0 0 8.46 -8.47 0 0 8.47 -16.93 0 0 8.47 -8.47 0 0 8.46 -16.93 0 0 8.47 -16.93 0 0 8.47 -8.47 0 0 8.46 -16.93 0 0 8.47 -16.93 0 0 8.47 -8.47 0 0 8.46 -16.93 0 0 8.47 -16.94 0 0 8.47 -16.93 0 0 8.46 -16.93 0 0 8.47 -16.94 0 0 8.47 -8.46 0 0 8.46 -8.47 0 0 16.94 -8.47 0 0 8.46 -8.46 0 0 8.47 -8.47 0 0 8.47 -8.47 0 0 8.46 -8.46 0 0 8.47 -16.94 0 0 8.47 -8.46 0 0 8.46 -16.94 0 0 8.47 -25.4 0 0 8.47 -16.93 0 0 8.46 -16.93 0 0 8.47 -25.4 0 0 8.47 -16.94 0 0 8.46 -16.93 0 0 8.47 -16.93 0 0 8.47 -16.94 0 0 8.46 -16.93 0 0 8.47 -16.93 0 0 8.47 -25.4 0 0 8.46 -16.94 0 0 8.47 -16.93 0 0 8.47 -16.93 0 0 8.46 -16.94 0 0 8.47 -16.93 0 0 8.47 -16.93 0 0 8.46 -25.4 0 0 8.47 -16.94 0 0 8.47 -16.93 0 0 8.46 -16.93 0 0 8.47 -16.94 0 0 8.47 -25.4 0 0 8.46 -16.93 0 0 8.47 -16.93 0 0 8.47 -25.4 0 0 8.46 -16.94 0 0 8.47 -16.93 0 0 8.47 -16.93 0 0 -76.2 16.93 0 0 -8.47 33.87 0 0 -8.47 25.4 0 0 -8.46 25.4 0 0 -8.47 25.4 0 0 -8.47 25.4 0 0 -8.46 25.4 0 0 -8.47 25.4 0 0 -8.47 25.4 0 0 -8.46 33.86 0 0 -8.47 25.4 0 0 -8.47 25.4 0 0 -8.46 25.4 0 0 -8.47 25.4 0 0 -8.47 25.4 0 0 -8.46 16.94 0 0 -8.47 25.4 0 0 -8.47 16.93 0 0 -8.46 8.47 0 0 -8.47 16.93 0 0 -8.47 16.93 0 0 -8.46 8.47 0 0 -8.47 16.93 0 0 -8.47 16.94 0 0 -8.46 8.46 0 0 -8.47 16.94 0 0 -8.47 8.46 0 0 -8.46 16.94 0 0 -8.47 8.46 0 0 -8.47 16.94 0 0 -8.46 16.93 0 0 -8.47 8.47 0 0 -8.47 16.93 0 0 -8.46 8.47 0 0 -8.47 16.93 0 0 -8.47 8.47 0 0 -8.46 16.93 0 0 -8.47 8.47 0 0 -8.47 16.93 0 0 -8.46 8.47 0 0 -8.47 16.93 0 0 -8.47 8.46 0 0 -8.46 16.94 0 0 -8.47 8.46 0 0 -8.47 16.94 0 0 -8.46 8.46 0 0 -8.47 8.47 0 0 -8.47 8.47 0 0 -8.46 16.93 0 0 -8.47 8.47 0 0 -8.47 8.46 0 0 -8.46 8.47 0 0 -8.47 8.47 0 0 -8.47 16.93 0 0 -8.46 8.47 0 0 -8.47 8.46 0 0 -8.46 8.47 0 0 -8.47 8.47 0 0 -8.47 8.46 0 0 -8.46 8.47 0 0 -8.47 8.47 0 0 -8.47 8.46 0 0 -8.46 8.47 0 0 -8.47 8.47 0 0 -8.47 8.46 0 0 -8.46 8.47 0 0 -8.47 8.47 0 0 -8.47 16.93 0 0 -8.46 8.47 0 0 -8.47 16.93 0 0 -8.47 25.4 0 0 8.47 -8.47 0 0 8.47 -8.46 0 0 8.46 -16.94 0 0 8.47 -8.46 0 0 8.47 -8.47 0 0 8.46 -8.47 0 0 8.47 -8.46 0 0 16.93 -8.47 0 0 8.47 -8.47 0 0 16.93 -8.46 0 0 16.94 8.46 0 0 8.46 8.47 0 0 8.47 16.93 0 0 -8.47 169.34 0 0 8.47 -8.47 0 0 8.46 -143.93 0 0 8.47 -8.47 0 0 16.93 8.47 0 0 16.94 16.93 0 0 16.93 16.93 0 0 8.47 8.47 0 0 8.46 8.47 0 0 8.47 8.46 0 0 8.47 8.47 0 0 8.46 8.47 0 0 16.94 8.46 0 0 8.46 -16.93 0 0 -8.46 -8.47 0 0 -8.47 -16.93 0 0 -8.47 -8.47 0 0 -8.46 -16.93 0 0 -8.47 -8.47 0 0 -8.47 -8.46 0 0 -8.46 -16.94 0 0 -8.47 -16.93 0 0 -8.47 -8.47 0 0 -8.46 -33.86 0 0 8.46 -8.47 0 0 16.94zm0 -719.67l8.47 0 0 -59.26 8.46 0 0 -33.87 8.47 0 0 16.93 8.47 0 0 8.47 8.46 0 0 16.93 8.47 0 0 8.47 8.47 0 0 25.4 8.46 0 0 16.93 8.47 0 0 143.94 -8.47 0 0 8.46 -59.26 0 0 -16.93 -8.47 0 0 -135.47zm-3335.85 719.67l0 8.46 -16.94 0 0 8.47 -8.46 0 0 8.47 -8.47 0 0 16.93 -8.47 0 0 16.93 -8.46 0 0 59.27 8.46 0 0 8.47 59.27 0 0 -8.47 8.47 0 0 -8.47 16.93 0 0 -8.46 8.47 0 0 -8.47 8.46 0 0 -8.47 16.94 0 0 -8.46 8.46 0 0 -8.47 8.47 0 0 67.73 16.93 0 0 8.47 33.87 0 0 -8.47 25.4 0 0 -8.46 8.47 0 0 -8.47 8.46 0 0 -8.47 8.47 0 0 -16.93 8.47 0 0 -16.93 8.46 0 0 -16.94 8.47 0 0 -8.46 8.47 0 0 8.46 16.93 0 0 8.47 16.93 0 0 8.47 16.93 0 0 8.46 8.47 0 0 8.47 16.93 0 0 8.47 8.47 0 0 8.46 16.93 0 0 8.47 16.94 0 0 8.47 8.46 0 0 8.46 16.94 0 0 8.47 8.46 0 0 8.47 8.47 0 0 8.46 8.47 0 0 8.47 16.93 0 0 8.47 8.47 0 0 8.46 16.93 0 0 8.47 16.93 0 0 8.47 8.47 0 0 8.46 8.47 0 0 8.47 16.93 0 0 8.47 8.47 0 0 8.46 8.46 0 0 8.47 8.47 0 0 8.47 16.93 0 0 8.46 8.47 0 0 8.47 8.47 0 0 8.47 16.93 0 0 8.46 8.47 0 0 8.47 16.93 0 0 8.47 16.93 0 0 8.46 25.4 0 0 8.47 16.94 0 0 8.47 25.4 0 0 8.46 16.93 0 0 8.47 16.93 0 0 8.47 16.94 0 0 8.46 25.4 0 0 8.47 16.93 0 0 8.47 25.4 0 0 8.46 16.93 0 0 8.47 16.94 0 0 8.47 16.93 0 0 8.46 25.4 0 0 8.47 16.93 0 0 8.47 25.4 0 0 8.46 25.4 0 0 8.47 16.94 0 0 8.47 25.4 0 0 8.46 25.4 0 0 8.47 25.4 0 0 8.47 25.4 0 0 8.46 25.4 0 0 16.94 -8.47 0 0 76.2 -8.47 0 0 42.33 8.47 0 0 16.93 -25.4 0 0 8.47 -25.4 0 0 8.47 -33.87 0 0 8.46 -33.86 0 0 8.47 -25.4 0 0 8.46 -16.94 0 0 8.47 -25.4 0 0 8.47 -16.93 0 0 8.46 -25.4 0 0 8.47 -16.93 0 0 8.47 -25.4 0 0 8.46 -16.94 0 0 8.47 -16.93 0 0 8.47 -25.4 0 0 8.46 -16.93 0 0 8.47 -16.94 0 0 8.47 -8.46 0 0 8.46 -16.94 0 0 8.47 -16.93 0 0 8.47 -16.93 0 0 8.46 -16.94 0 0 8.47 -8.46 0 0 8.47 -16.94 0 0 8.46 -16.93 0 0 8.47 -8.47 0 0 8.47 -16.93 0 0 8.46 -8.47 0 0 8.47 -16.93 0 0 8.47 -8.47 0 0 8.46 -16.93 0 0 8.47 -8.47 0 0 8.47 -16.93 0 0 8.46 -8.47 0 0 8.47 -8.46 0 0 8.47 -16.94 0 0 8.46 -8.46 0 0 8.47 -8.47 0 0 8.47 -8.47 0 0 8.46 -8.46 0 0 8.47 -8.47 0 0 8.47 -8.47 0 0 8.46 -8.46 0 0 8.47 -8.47 0 0 8.47 -8.47 0 0 16.93 -8.46 0 0 16.93 -8.47 0 0 25.4 8.47 0 0 16.94 8.46 0 0 16.93 8.47 0 0 16.93 8.47 0 0 8.47 8.46 0 0 8.47 8.47 0 0 16.93 8.47 0 0 8.47 16.93 0 0 8.46 16.93 0 0 8.47 25.4 0 0 8.47 42.34 0 0 8.46 42.33 0 0 8.47 50.8 0 0 8.47 50.8 0 0 8.46 67.73 0 0 8.47 59.27 0 0 8.47 33.87 0 0 8.46 33.86 0 0 8.47 25.4 0 0 8.47 16.94 0 0 8.46 16.93 0 0 8.47 16.93 0 0 8.47 8.47 0 0 8.46 8.47 0 0 8.47 8.46 0 0 76.2 -8.46 0 0 42.33 -110.07 0 0 -8.47 -25.4 0 0 -8.46 -33.87 0 0 -8.47 -42.33 0 0 8.47 -16.93 0 0 50.8 8.46 0 0 8.46 8.47 0 0 8.47 16.93 0 0 8.47 8.47 0 0 8.46 16.93 0 0 8.47 16.94 0 0 8.47 25.4 0 0 8.46 42.33 0 0 8.47 160.87 0 0 -8.47 25.4 0 0 -8.46 16.93 0 0 -8.47 8.47 0 0 -33.87 8.46 0 0 33.87 8.47 0 0 67.73 8.47 0 0 59.27 8.46 0 0 59.27 8.47 0 0 50.8 8.47 0 0 42.33 8.46 0 0 42.33 8.47 0 0 25.4 8.47 0 0 33.87 8.46 0 0 16.93 8.47 0 0 16.94 8.47 0 0 16.93 8.46 0 0 16.93 8.47 0 0 8.47 8.46 0 0 16.93 8.47 0 0 16.94 8.47 0 0 16.93 8.46 0 0 16.93 8.47 0 0 16.94 8.47 0 0 8.46 8.46 0 0 8.47 8.47 0 0 8.47 8.47 0 0 8.46 8.46 0 0 8.47 8.47 0 0 76.2 -8.47 0 0 67.73 -8.46 0 0 67.73 -8.47 0 0 76.2 8.47 0 0 59.27 8.46 0 0 42.33 8.47 0 0 42.34 8.47 0 0 42.33 8.46 0 0 33.87 8.47 0 0 33.86 8.47 0 0 42.34 8.46 0 0 25.4 8.47 0 0 33.86 8.47 0 0 42.34 8.46 0 0 33.86 8.47 0 0 33.87 8.47 0 0 33.87 8.46 0 0 25.4 8.47 0 0 33.86 8.47 0 0 25.4 8.46 0 0 33.87 8.47 0 0 33.86 8.47 0 0 25.4 8.46 0 0 16.94 8.47 0 0 16.93 -25.4 0 0 8.47 -67.73 0 0 -8.47 -33.87 0 0 -8.47 -33.87 0 0 -8.46 -25.4 0 0 -8.47 -25.4 0 0 -8.47 -42.33 0 0 -8.46 -84.66 0 0 8.46 -33.87 0 0 8.47 -16.93 0 0 8.47 -16.94 0 0 8.46 -8.46 0 0 8.47 -8.47 0 0 8.47 -16.93 0 0 8.46 -8.47 0 0 8.47 -8.47 0 0 8.47 -8.46 0 0 8.46 -8.47 0 0 8.47 -8.47 0 0 8.47 -8.46 0 0 8.46 -8.47 0 0 8.47 -8.47 0 0 16.93 -8.46 0 0 8.47 -8.47 0 0 8.47 -8.47 0 0 16.93 -8.46 0 0 8.47 -8.47 0 0 16.93 -8.47 0 0 33.87 8.47 0 0 8.46 25.4 0 0 8.47 152.4 0 0 -8.47 50.8 0 0 -8.46 42.33 0 0 -8.47 50.8 0 0 -8.47 42.33 0 0 -8.46 42.34 0 0 -8.47 42.33 0 0 -8.47 50.8 0 0 -8.46 42.33 0 0 -8.47 33.87 0 0 -8.47 42.33 0 0 -8.46 50.8 0 0 -8.47 8.47 0 0 -8.47 8.47 0 0 -8.46 8.46 0 0 -67.74 -8.46 0 0 -16.93 -8.47 0 0 -25.4 -8.47 0 0 -25.4 -8.46 0 0 -16.93 -8.47 0 0 -25.4 -8.47 0 0 -25.4 -8.46 0 0 -16.94 -8.47 0 0 -25.4 -8.47 0 0 -25.39 -8.46 0 0 -33.87 -8.47 0 0 -42.33 -8.47 0 0 -25.4 -8.46 0 0 -42.34 -8.47 0 0 -25.4 -8.47 0 0 -25.4 -8.46 0 0 -25.4 -8.47 0 0 -25.4 -8.47 0 0 -33.86 -8.46 0 0 -33.87 -8.47 0 0 -50.8 -8.47 0 0 -33.87 -8.46 0 0 -42.33 -8.47 0 0 -50.8 -8.47 0 0 -76.2 8.47 0 0 -42.33 8.47 0 0 -42.34 8.46 0 0 -42.33 8.47 0 0 -33.87 8.47 0 0 -25.39 25.4 0 0 8.46 59.26 0 0 8.47 67.74 0 0 8.46 76.2 0 0 8.47 101.6 0 0 8.47 177.8 0 0 -8.47 76.2 0 0 -8.47 42.33 0 0 -8.46 33.87 0 0 -8.47 25.4 0 0 -8.46 25.4 0 0 -8.47 25.4 0 0 -8.47 16.93 0 0 16.94 8.46 0 0 25.39 8.47 0 0 25.4 8.47 0 0 33.87 8.46 0 0 50.8 8.47 0 0 42.33 8.47 0 0 101.6 -8.47 0 0 42.34 -8.47 0 0 42.33 -8.46 0 0 42.33 -8.47 0 0 33.87 -8.47 0 0 33.87 -8.46 0 0 33.86 -8.47 0 0 33.87 -8.46 0 0 25.4 -8.47 0 0 25.4 -8.47 0 0 25.4 -8.46 0 0 25.4 -8.47 0 0 42.33 -8.47 0 0 42.34 -8.46 0 0 33.86 -8.47 0 0 25.4 -8.47 0 0 25.4 -8.46 0 0 16.93 -8.47 0 0 16.94 -8.47 0 0 25.4 -8.46 0 0 25.4 -8.47 0 0 16.93 -8.47 0 0 25.4 -8.46 0 0 25.4 -8.47 0 0 59.27 8.47 0 0 8.46 8.46 0 0 8.47 8.47 0 0 8.47 59.27 0 0 8.46 33.86 0 0 8.47 33.87 0 0 8.47 42.33 0 0 8.46 50.8 0 0 8.47 42.33 0 0 8.47 42.34 0 0 8.46 42.33 0 0 8.47 50.8 0 0 8.47 42.33 0 0 8.46 50.8 0 0 8.47 152.4 0 0 -8.47 25.4 0 0 -8.46 8.47 0 0 -16.94 8.47 0 0 -8.46 -8.47 0 0 -8.47 -8.47 0 0 -16.93 -8.46 0 0 -16.94 -8.47 0 0 -8.46 -8.47 0 0 -8.47 -8.46 0 0 -16.93 -8.47 0 0 -8.47 -8.47 0 0 -8.47 -8.46 0 0 -8.46 -8.47 0 0 -8.47 -8.47 0 0 -8.47 -8.46 0 0 -8.46 -8.47 0 0 -8.47 -8.47 0 0 -8.47 -8.46 0 0 -8.46 -8.47 0 0 -8.47 -16.93 0 0 -8.47 -8.47 0 0 -8.46 -16.93 0 0 -8.47 -16.94 0 0 -8.47 -33.86 0 0 -8.46 -84.67 0 0 8.46 -33.87 0 0 8.47 -33.86 0 0 8.47 -25.4 0 0 8.46 -25.4 0 0 8.47 -42.34 0 0 8.47 -67.73 0 0 -8.47 -16.93 0 0 -33.87 8.46 0 0 -25.4 8.47 0 0 -33.86 8.47 0 0 -25.4 8.46 0 0 -33.87 8.47 0 0 -25.4 8.47 0 0 -33.86 8.46 0 0 -25.4 8.47 0 0 -42.34 8.47 0 0 -33.86 8.46 0 0 -33.87 8.47 0 0 -33.87 8.47 0 0 -33.86 8.46 0 0 -33.87 8.47 0 0 -33.87 8.47 0 0 -42.33 8.46 0 0 -42.33 8.47 0 0 -33.87 8.47 0 0 -50.8 8.46 0 0 -50.8 8.47 0 0 -101.6 -8.47 0 0 -67.73 -8.46 0 0 -143.93 -8.47 0 0 -59.27 8.47 0 0 -8.47 8.46 0 0 -16.93 8.47 0 0 -8.47 8.47 0 0 -8.46 8.46 0 0 -16.94 8.47 0 0 -16.93 8.47 0 0 -16.93 8.46 0 0 -25.4 8.47 0 0 -25.4 8.47 0 0 -42.34 8.46 0 0 -50.8 8.47 0 0 -76.2 8.47 0 0 -135.46 8.46 0 0 -59.27 8.47 0 0 8.47 8.47 0 0 8.46 33.86 0 0 8.47 152.4 0 0 -8.47 42.34 0 0 -8.46 25.4 0 0 -8.47 16.93 0 0 -8.47 16.93 0 0 -8.46 16.94 0 0 -8.47 8.46 0 0 -8.47 16.94 0 0 -16.93 8.46 0 0 -25.4 8.47 0 0 -25.4 -8.47 0 0 -16.93 -8.46 0 0 -8.47 -8.47 0 0 -8.46 -16.93 0 0 8.46 -25.4 0 0 8.47 -16.94 0 0 8.47 -16.93 0 0 8.46 -33.87 0 0 8.47 -25.4 0 0 8.46 -59.26 0 0 8.47 -16.94 0 0 -8.47 -8.46 0 0 -42.33 -8.47 0 0 -59.26 8.47 0 0 -16.94 8.46 0 0 -8.46 16.94 0 0 -8.47 16.93 0 0 -8.47 8.47 0 0 -8.46 25.4 0 0 -8.47 25.4 0 0 -8.47 25.4 0 0 -8.46 33.86 0 0 -8.47 50.8 0 0 -8.47 76.2 0 0 -8.46 50.8 0 0 -8.47 50.8 0 0 -8.47 50.8 0 0 -8.46 33.87 0 0 -8.47 25.4 0 0 -8.47 16.93 0 0 -8.46 16.94 0 0 -8.47 8.46 0 0 -8.47 8.47 0 0 -8.46 8.47 0 0 -16.94 8.46 0 0 -8.46 8.47 0 0 -16.94 8.46 0 0 -16.93 8.47 0 0 -33.87 -8.47 0 0 -16.93 -8.46 0 0 -16.93 -8.47 0 0 -8.47 -8.46 0 0 -16.93 -8.47 0 0 -8.47 -16.93 0 0 -8.47 -8.47 0 0 -8.46 -8.47 0 0 -8.47 -8.46 0 0 -8.47 -8.47 0 0 -8.46 -8.47 0 0 -8.47 -8.46 0 0 -8.47 -16.94 0 0 -8.46 -8.46 0 0 -8.47 -16.94 0 0 -8.47 -8.46 0 0 -8.46 -16.94 0 0 -8.47 -8.46 0 0 -8.47 -16.94 0 0 -8.46 -8.46 0 0 -8.47 -16.94 0 0 -8.47 -16.93 0 0 -8.46 -8.47 0 0 -8.47 -16.93 0 0 -8.47 -16.93 0 0 -8.46 -8.47 0 0 -8.47 -16.93 0 0 -8.47 -16.94 0 0 -8.46 -16.93 0 0 -8.47 -16.93 0 0 -8.47 -16.94 0 0 -8.46 -16.93 0 0 -8.47 -16.93 0 0 -8.47 -25.4 0 0 -8.46 -16.94 0 0 -8.47 -25.4 0 0 -8.47 -16.93 0 0 -8.46 -16.93 0 0 -8.47 -25.4 0 0 -8.47 -16.94 0 0 -8.46 -25.4 0 0 -8.47 -25.4 0 0 -8.46 -25.4 0 0 -8.47 -25.4 0 0 -8.47 -25.4 0 0 -8.46 -25.4 0 0 -8.47 -25.4 0 0 -8.47 -16.93 0 0 -33.86 -8.47 0 0 -84.67 8.47 0 0 -8.47 25.4 0 0 -8.46 16.93 0 0 -8.47 16.94 0 0 -8.47 16.93 0 0 -8.46 16.93 0 0 -8.47 16.94 0 0 -8.47 25.4 0 0 -8.46 16.93 0 0 -8.47 16.93 0 0 -8.47 25.4 0 0 -8.46 8.47 0 0 -8.47 25.4 0 0 -8.47 16.93 0 0 -8.46 16.94 0 0 -8.47 16.93 0 0 -8.47 25.4 0 0 -8.46 16.93 0 0 -8.47 16.94 0 0 -8.47 16.93 0 0 -8.46 16.93 0 0 -8.47 16.94 0 0 -8.47 25.4 0 0 -8.46 16.93 0 0 -8.47 16.93 0 0 -8.47 16.94 0 0 -8.46 16.93 0 0 -8.47 16.93 0 0 -8.47 16.94 0 0 -8.46 25.4 0 0 -8.47 16.93 0 0 -8.47 16.93 0 0 -8.46 8.47 0 0 -8.47 8.47 0 0 -8.47 8.46 0 0 -8.46 8.47 0 0 -8.47 8.47 0 0 -8.47 8.46 0 0 -8.46 8.47 0 0 -8.47 8.47 0 0 -8.47 8.46 0 0 -8.46 8.47 0 0 -8.47 16.93 0 0 -8.47 16.94 0 0 -8.46 16.93 0 0 -8.47 16.93 0 0 -8.47 16.93 0 0 -8.46 8.47 0 0 -8.47 16.93 0 0 -8.47 8.47 0 0 -8.46 16.93 0 0 -8.47 16.94 0 0 -8.47 8.46 0 0 -8.46 16.94 0 0 -8.47 16.93 0 0 -8.47 8.47 0 0 -8.46 16.93 0 0 -8.47 8.47 0 0 -8.47 8.46 0 0 33.87 8.47 0 0 25.4 8.47 0 0 16.93 8.46 0 0 16.94 8.47 0 0 8.46 16.93 0 0 8.47 50.8 0 0 -8.47 8.47 0 0 -59.26 8.47 0 0 8.46 16.93 0 0 8.47 8.47 0 0 8.47 16.93 0 0 8.46 8.47 0 0 8.47 16.93 0 0 8.47 59.27 0 0 -16.94 8.46 0 0 -33.86 -8.46 0 0 -8.47 -8.47 0 0 -16.93 -8.47 0 0 -8.47 -8.46 0 0 -8.47 -8.47 0 0 -8.46 -8.47 0 0 -8.47 -8.46 0 0 -8.47 -8.47 0 0 -8.46 76.2 0 0 -8.47 16.93 0 0 -8.47 16.94 0 0 -8.46 8.46 0 0 -16.94 8.47 0 0 -50.79 -186.27 0 0 -8.47 8.47 0 0 -8.47 8.47 0 0 -8.46 8.46 0 0 -8.47 8.47 0 0 -8.47 8.47 0 0 -8.46 8.46 0 0 -8.47 8.47 0 0 -8.47 8.47 0 0 -8.46 8.46 0 0 -8.47 8.47 0 0 -16.93 8.47 0 0 -33.87 -16.94 0 0 -8.47 -8.46 0 0 8.47 -42.34 0 0 8.47 -33.86 0 0 8.46 -16.94 0 0 8.47 -16.93 0 0 8.47 -8.47 0 0 8.46 -8.46 0 0 8.47 -8.47 0 0 8.47 -8.47 0 0 8.46 -8.46 0 0 8.47 -8.47 0 0 8.47 -8.47 0 0 8.46 -8.46 0 0 8.47 -8.47 0 0 8.47 -8.47 0 0 8.46 -8.46 0 0 8.47 -8.47 0 0 8.47 -16.93 0 0 8.46 -8.47 0 0 8.47 -8.47 0 0 8.47 -8.46 0 0 8.46 -8.47 0 0 8.47 -8.47 0 0 8.46 -16.93 0 0 8.47 -8.47 0 0 8.47 -8.46 0 0 8.46 -8.47 0 0 8.47 -16.93 0 0 8.47 -8.47 0 0 8.46 -16.93 0 0 8.47 -8.47 0 0 8.47 -16.93 0 0 8.46 -8.47 0 0 8.47 -16.93 0 0 8.47 -8.47 0 0 8.46 -8.46 0 0 8.47 -16.94 0 0 8.47 -8.46 0 0 8.46 -16.94 0 0 8.47 -16.93 0 0 8.47 -8.47 0 0 8.46 -16.93 0 0 8.47 -8.47 0 0 8.47 -16.93 0 0 8.46 -8.47 0 0 8.47 -16.93 0 0 8.47 -16.93 0 0 8.46 -8.47 0 0 8.47 -16.93 0 0 8.47 -8.47 0 0 8.46 -16.93 0 0 8.47 -8.47 0 0 8.47 -16.93 0 0 8.46 -16.94 0 0 8.47 -16.93 0 0 8.47 -16.93 0 0 8.46 -16.94 0 0 8.47 -16.93 0 0 8.47 -25.4 0 0 8.46 -25.4 0 0 8.47 -33.87 0 0 8.47 -25.4 0 0 8.46 -33.86 0 0 8.47 -16.94 0 0 8.47 -33.86 0 0 8.46 -25.4 0 0 8.47 -25.4 0 0 8.47 -25.4 0 0 8.46 -25.4 0 0 8.47 -25.4 0 0 8.47 -25.4 0 0 8.46 -25.4 0 0 8.47 -8.47 0 0 -16.93 -8.47 0 0 -42.34 -8.46 0 0 -33.86 -8.47 0 0 -16.94 -8.47 0 0 -16.93 -8.46 0 0 -16.93 -8.47 0 0 -8.47 -8.47 0 0 -8.47 -8.46 0 0 -16.93 -8.47 0 0 -8.47 -8.47 0 0 -8.46 -8.46 0 0 -8.47 -8.47 0 0 -8.47 -8.47 0 0 -25.4 8.47 0 0 -16.93 8.47 0 0 -25.4 8.46 0 0 -25.4 8.47 0 0 -25.4 8.47 0 0 -42.33 8.46 0 0 -42.34 8.47 0 0 -152.39 -8.47 0 0 -33.87 -8.46 0 0 -33.87 -8.47 0 0 -16.93 -8.47 0 0 -25.4 -8.46 0 0 -16.93 -8.47 0 0 -16.94 -8.47 0 0 -8.46 -8.46 0 0 -16.94 -8.47 0 0 -16.93 -8.47 0 0 -8.47 -8.46 0 0 -8.46 -8.47 0 0 -8.47 -8.47 0 0 -16.93 -8.46 0 0 -8.47 -8.47 0 0 -8.47 -8.47 0 0 -8.46 -8.46 0 0 -8.47 -8.47 0 0 -8.47 -8.46 0 0 -8.46 -8.47 0 0 -8.47 -8.47 0 0 -8.47 -8.46 0 0 -8.46 -8.47 0 0 -8.47 -8.47 0 0 -8.47 -16.93 0 0 -8.46 -8.47 0 0 -8.47 -16.93 0 0 -8.47 -8.47 0 0 -8.46 -8.46 0 0 -8.47 8.46 0 0 -16.93 8.47 0 0 -8.47 8.47 0 0 -8.47 8.46 0 0 -8.46 8.47 0 0 -16.94 8.47 0 0 -8.46 8.46 0 0 -8.47 8.47 0 0 -8.47 8.47 0 0 -8.46 8.46 0 0 -16.94 8.47 0 0 -8.46 8.47 0 0 -8.47 8.46 0 0 -8.47 8.47 0 0 -8.46 8.46 0 0 -8.47 8.47 0 0 -8.47 16.93 0 0 -8.46 8.47 0 0 -8.47 8.47 0 0 -8.47 8.46 0 0 -8.46 8.47 0 0 -8.47 16.93 0 0 -8.47 8.47 0 0 -8.46 8.47 0 0 -8.47 8.46 0 0 -8.47 16.94 0 0 -8.46 8.46 0 0 -8.47 8.47 0 0 -8.46 8.47 0 0 -8.47 16.93 0 0 -8.47 8.47 0 0 -8.46 8.46 0 0 -8.47 8.47 0 0 -8.47 16.93 0 0 -8.46 8.47 0 0 -8.47 16.93 0 0 -8.47 8.47 0 0 -8.46 8.47 0 0 -8.47 8.46 0 0 -8.47 16.94 0 0 -8.46 8.46 0 0 -8.47 8.47 0 0 -8.47 16.93 0 0 -8.46 8.47 0 0 -8.47 8.47 0 0 -8.47 8.46 0 0 -8.46 16.94 0 0 -8.47 8.46 0 0 -8.47 8.47 0 0 -8.46 8.47 0 0 -8.47 16.93 0 0 -8.47 8.47 0 0 -8.46 8.46 0 0 -8.47 8.47 0 0 -8.47 8.47 0 0 -8.46 16.93 0 0 -8.47 8.47 0 0 -8.47 16.93 0 0 -8.46 8.47 0 0 -8.47 16.93 0 0 -8.47 16.93 0 0 -8.46 33.87 0 0 -8.47 42.33 0 0 -8.47 42.34 0 0 -8.46 42.33 0 0 -8.47 42.33 0 0 -8.47 143.94 0 0 8.47 42.33 0 0 8.47 25.4 0 0 8.46 8.47 0 0 8.47 8.46 0 0 8.47 8.47 0 0 8.46 8.46 0 0 16.94 8.47 0 0 8.46 8.47 0 0 16.94 8.46 0 0 16.93 8.47 0 0 16.93 8.47 0 0 16.94 8.46 0 0 16.93 8.47 0 0 8.47 8.47 0 0 16.93 8.46 0 0 16.93 8.47 0 0 16.94 8.47 0 0 8.46 8.46 0 0 8.47 8.47 0 0 16.93 8.47 0 0 8.47 8.46 0 0 8.47 8.47 0 0 8.46 8.47 0 0 8.47 8.46 0 0 8.47 8.47 0 0 8.46 8.47 0 0 59.27 -8.47 0 0 50.8 -8.47 0 0 84.66 -8.46 0 0 67.74 8.46 0 0 33.86 8.47 0 0 25.4 8.47 0 0 8.47 8.46 0 0 8.47 76.2 0 0 -8.47 16.94 0 0 -8.47 16.93 0 0 -16.93 8.47 0 0 -25.4 8.46 0 0 -118.53 -8.46 0 0 -33.87 -8.47 0 0 -42.33 -16.93 0 0 -8.47 -8.47 0 0 -16.93 -8.47 0 0 -8.47 -8.46 0 0 -16.93 -8.47 0 0 -8.47 -8.47 0 0 -8.46 -8.46 0 0 -16.94 -8.47 0 0 -8.46 -8.47 0 0 -8.47 -8.46 0 0 -8.47 -8.47 0 0 -8.46 -8.47 0 0 -8.47 -8.46 0 0 -16.93 -8.47 0 0 -8.47 -8.47 0 0 -8.47 -8.46 0 0 -8.46 -8.47 0 0 -8.47 -8.47 0 0 -8.47 -8.46 0 0 -16.93 -8.47 0 0 -16.93 -8.47 0 0 -16.94 -8.46 0 0 -16.93 -8.47 0 0 -8.47 -8.47 0 0 -16.93 -8.46 0 0 -16.93 -8.47 0 0 -16.94 -8.47 0 0 -16.93 -8.46 0 0 -16.93 -8.47 0 0 -8.47 -8.47 0 0 -8.47 -8.46 0 0 -8.46 -8.47 0 0 -8.47 -8.47 0 0 -8.47 -8.46 0 0 -8.46 -8.47 0 0 -8.47 -16.93 0 0 -8.47 -25.4 0 0 -8.46 -59.27 0 0 -8.47 -118.53 0 0 8.47 -42.33 0 0 8.46 -42.34 0 0 8.47 -42.33 0 0 8.47 -33.87 0 0 8.46 -33.86 0 0 8.47 -33.87 0 0 8.47 -16.93 0 0 8.46 -16.94 0 0 8.47 -8.46 0 0 8.47 -16.94 0 0 8.46 -8.46 0 0 8.47 -8.47 0 0 8.47 -16.93 0 0 8.46 -8.47 0 0 8.47 -16.93 0 0 8.47 -8.47 0 0 8.46 -8.47 0 0 8.47 -8.46 0 0 8.47 -8.47 0 0 8.46 -16.93 0 0 8.47 -8.47 0 0 8.47 -8.47 0 0 8.46 -8.46 0 0 8.47 -16.94 0 0 8.47 -8.46 0 0 8.46 -8.47 0 0 8.47 -8.47 0 0 8.47 -16.93 0 0 8.46 -8.47 0 0 8.47 -8.46 0 0 8.47 -16.94 0 0 8.46 -8.46 0 0 8.47 -8.47 0 0 8.47 -8.47 0 0 8.46 -16.93 0 0 8.47 -8.47 0 0 8.47 -16.93 0 0 8.46 -8.47 0 0 8.47 -8.46 0 0 8.47 -8.47 0 0 8.46 -8.47 0 0 8.47 -16.93 0 0 8.47 -8.47 0 0 8.46 -16.93 0 0 8.47 -8.47 0 0 8.46 -8.46 0 0 8.47 -8.47 0 0 8.47 -8.47 0 0 8.46 -8.46 0 0 8.47 -16.94 0 0 8.47 -8.46 0 0 8.46 -8.47 0 0 8.47 -8.46 0 0 8.47 -8.47 0 0 8.46 -8.47 0 0 8.47 -8.46 0 0 8.47 -8.47 0 0 8.46 -8.47 0 0 8.47 -8.46 0 0 8.47 -8.47 0 0 16.93 -8.47 0 0 8.47 -8.46 0 0 8.46 -8.47 0 0 8.47 -8.47 0 0 8.47 -8.46 0 0 16.93 -8.47 0 0 8.47 -8.47 0 0 8.46 -8.46 0 0 16.94 -50.8 0 0 -8.47 -50.8 0 0 -8.47 -59.27 0 0 -8.46 -279.4 0 0 8.46 -42.33 0 0 8.47 -33.87 0 0 8.47 -25.4 0 0 8.46 -16.93 0 0 8.47 -16.94 0 0 8.47 -16.93 0 0 8.46 -16.93 0 0 8.47 -16.94 0 0 8.47 -8.46 0 0 8.46 -16.94 0 0 8.47 -8.46 0 0 8.47 -16.94 0 0 8.46 -8.46 0 0 8.47 -8.47 0 0 8.47 -16.93 0 0 8.46 -8.47 0 0 8.47 -16.93 0 0 8.47 -8.47 0 0 8.46 -8.47 0 0 8.47 -25.4 0 0 -8.47 -8.46 0 0 -8.46 -8.47 0 0 -8.47 -8.47 0 0 -8.47 -8.46 0 0 -8.46 -8.47 0 0 -16.94 -8.47 0 0 -8.46 -8.46 0 0 -8.47 -8.47 0 0 -8.47 -8.46 0 0 -8.46 -8.47 0 0 -16.94 -8.47 0 0 -8.46 -8.46 0 0 -8.47 -8.47 0 0 -8.47 -8.47 0 0 -8.46 -8.46 0 0 -8.47 -8.47 0 0 -8.47 -8.47 0 0 -8.46 -8.46 0 0 -8.47 -8.47 0 0 -8.47 -16.93 0 0 -8.46 -16.94 0 0 -8.47 -8.46 0 0 -8.47 -16.94 0 0 -8.46 -16.93 0 0 -8.47 -16.93 0 0 -8.47 -8.47 0 0 -8.46 -8.47 0 0 -8.47 -16.93 0 0 -8.47 -8.47 0 0 -8.46 -16.93 0 0 -8.47 -8.47 0 0 -8.47 -8.46 0 0 -8.46 -16.94 0 0 -8.47 -8.46 0 0 -8.47 -16.94 0 0 -8.46 -8.46 0 0 -8.47 -25.4 0 0 -8.47 -33.87 0 0 -8.46 -67.73 0 0 -8.47 -270.94 0 0 8.47 -33.86 0 0 8.46 -33.87 0 0 8.47 -25.4 0 0 8.47 -25.4 0 0 8.46 -25.4 0 0 8.47 -25.4 0 0 8.47 -16.93 0 0 8.46 -25.4 0 0 8.47 -16.94 0 0 8.47 -25.39 0 0 8.46 -16.94 0 0 8.47 -16.93 0 0 8.47 -16.93 0 0 8.46 -16.94 0 0 8.47 -16.93 0 0 8.47 -8.47 0 0 8.46 -16.93 0 0 8.47 -16.93 0 0 8.47 -16.94 0 0 8.46 -16.93 0 0 8.47 -8.47 0 0 8.47 -16.93 0 0 8.46 -8.47 0 0 8.47 -16.93 0 0 8.47 -16.93 0 0 8.46 -8.47 0 0 8.47 -8.47 0 0 8.47 -8.46 0 0 8.46 -8.47 0 0 8.47 -8.47 0 0 8.47 -8.46 0 0 8.46 -16.94 0 0 8.47 -8.46 0 0 16.93 -8.47 0 0 16.94 -8.47 0 0 16.93 -8.46 0 0 16.93 -8.47 0 0 16.94 -8.47 0 0 16.93 -8.46 0 0 8.47 -8.47 0 0 8.46 -8.47 0 0 8.47 -8.46 0 0 8.47 -8.47 0 0 8.46 -8.47 0 0 16.94 -8.46 0 0 8.46 -8.47 0 0 8.47 -8.47 0 0 16.93 -8.46 0 0 8.47 -8.47 0 0 16.93 -8.47 0 0 8.47 -8.46 0 0 42.33 -8.47 0 0 118.54 16.93 0 0 8.46 33.87 0 0 8.47 25.4 0 0 8.47 76.2 0 0 -8.47 8.47 0 0 -8.47 8.46 0 0 -8.46 8.47 0 0 -33.87 8.47 0 0 -50.8 -8.47 0 0 -59.27 -8.47 0 0 -33.86 -8.46 0 0 -25.4 -8.47 0 0 -25.4 -8.47 0 0 -42.34 8.47 0 0 -16.93 8.47 0 0 -16.93 8.46 0 0 -16.94 8.47 0 0 -16.93 8.47 0 0 -16.93 8.46 0 0 -8.47 8.47 0 0 -8.47 8.47 0 0 -8.46 8.46 0 0 -8.47 8.47 0 0 -8.47 16.93 0 0 -8.46 8.47 0 0 -8.47 8.47 0 0 -8.47 8.46 0 0 -8.46 16.94 0 0 -8.47 8.46 0 0 -8.47 16.94 0 0 -8.46 16.93 0 0 -8.47 16.93 0 0 -8.47 8.47 0 0 -8.46 16.93 0 0 -8.47 16.94 0 0 -8.47 8.46 0 0 -8.46 16.94 0 0 -8.47 16.93 0 0 -8.47 16.93 0 0 -8.46 16.94 0 0 -8.47 16.93 0 0 -8.47 25.4 0 0 -8.46 16.93 0 0 -8.47 16.93 0 0 -8.47 33.87 0 0 -8.46 25.4 0 0 -8.47 25.4 0 0 -8.47 25.4 0 0 -8.46 25.4 0 0 -8.47 25.4 0 0 -8.47 330.2 0 0 8.47 42.33 0 0 8.47 16.94 0 0 8.46 16.93 0 0 8.47 16.93 0 0 8.47 8.47 0 0 8.46 16.93 0 0 8.47 8.47 0 0 8.47 8.47 0 0 8.46 16.93 0 0 8.47 8.47 0 0 8.47 8.46 0 0 8.46 16.94 0 0 8.47 8.46 0 0 8.47 16.94 0 0 8.46 16.93 0 0 8.47 16.93 0 0 8.47 8.47 0 0 8.46 16.93 0 0 8.47 8.47 0 0 8.47 16.93 0 0 8.46 8.47 0 0 8.47 8.47 0 0 8.47 8.46 0 0 8.46 8.47 0 0 8.47 8.47 0 0 16.93 8.46 0 0 8.47 8.47 0 0 8.47 8.47 0 0 8.46 8.46 0 0 8.47 8.47 0 0 16.93 8.47 0 0 8.47 8.46 0 0 8.47 8.47 0 0 8.46 8.46 0 0 8.47 8.47 0 0 8.47 8.47 0 0 8.46 8.46 0 0 8.47 8.47 0 0 8.47 -8.47 0 0 8.46 -8.46 0 0 8.47 -8.47 0 0 16.93 -8.47 0 0 8.47 -8.46 0 0 16.93 -8.47 0 0 8.47 -8.46 0 0 25.4 -8.47 0 0 16.93 -8.47 0 0 16.94 -8.46 0 0 25.4 -8.47 0 0 33.86 -8.47 0 0 25.4 -8.46 0 0 33.87 -8.47 0 0 50.8 -8.47 0 0 67.73 -8.46 0 0 177.8 8.46 0 0 42.33 8.47 0 0 25.4 8.47 0 0 16.94 8.46 0 0 8.46 8.47 0 0 16.94 8.47 0 0 8.46 8.46 0 0 8.47 8.47 0 0 8.47 16.93 0 0 8.46 8.47 0 0 8.47 -16.93 0 0 8.47 -8.47 0 0 8.46 -8.47 0 0 16.94 -8.46 0 0 8.46 -8.47 0 0 8.47 -8.47 0 0 16.93 -8.46 0 0 8.47 -8.47 0 0 16.93 -33.87 0 0 -8.46 -25.4 0 0 -8.47 -25.4 0 0 -8.47 -25.4 0 0 -8.46 -25.4 0 0 -8.47 -25.4 0 0 -8.47 -25.4 0 0 -8.46 -33.86 0 0 -8.47 -16.94 0 0 -8.47 -33.86 0 0 -8.46 -25.4 0 0 -8.47 -25.4 0 0 -8.47 -25.4 0 0 -8.46 -25.4 0 0 -8.47 -25.4 0 0 -8.47 -16.94 0 0 -8.46 -16.93 0 0 -8.47 -16.93 0 0 -8.47 -16.94 0 0 -8.46 -8.46 0 0 -8.47 -16.94 0 0 -8.47 -16.93 0 0 -8.46 -16.93 0 0 -8.47 -8.47 0 0 -8.47 -16.93 0 0 -8.46 -8.47 0 0 -8.47 -16.93 0 0 -8.47 -8.47 0 0 -8.46 -16.93 0 0 -8.47 -16.94 0 0 -8.47 -8.46 0 0 -8.46 -16.94 0 0 -8.47 -8.46 0 0 -8.47 -8.47 0 0 -8.46 -16.93 0 0 -8.47 -16.94 0 0 -8.47 -8.46 0 0 -8.46 -16.94 0 0 -8.47 -8.46 0 0 -8.47 -16.94 0 0 -8.46 -8.46 0 0 -8.47 -16.94 0 0 -8.47 -8.46 0 0 -8.46 -16.94 0 0 -8.47 -8.46 0 0 -8.47 -8.47 0 0 -8.46 -8.47 0 0 -8.47 -8.46 0 0 -8.47 -16.94 0 0 -8.46 -8.46 0 0 -8.47 -8.47 0 0 -8.47 -16.93 0 0 -8.46 -8.47 0 0 -8.47 -8.46 0 0 -8.46 -8.47 0 0 -8.47 -8.47 0 0 -8.47 -8.46 0 0 -8.46 -8.47 0 0 -8.47 -8.47 0 0 -8.47 -8.46 0 0 -8.46 -8.47 0 0 -8.47 -8.47 0 0 -8.47 -8.46 0 0 -8.46 -8.47 0 0 -8.47 -8.47 0 0 -8.47 -8.46 0 0 -8.46 -8.47 0 0 -8.47 -16.93 0 0 -8.47 -16.94 0 0 -8.46 -25.4 0 0 -8.47 -33.86 0 0 -8.47 -42.34 0 0 8.47 -8.46 0 0 25.4 8.46 0 0 16.93 8.47 0 0 8.47 8.47 0 0 8.47 8.46 0 0 16.93 16.94 0 0 8.47 8.46 0 0 8.46 8.47 0 0 8.47 8.47 0 0 8.47 8.46 0 0 8.46 8.47 0 0 8.47 8.47 0 0 8.47 -135.47 0 0 8.46 -33.87 0 0 8.47 -8.46 0 0 8.46 -8.47 0 0 8.47 -8.47 0 0 16.93 -8.46 0 0 25.4 8.46 0 0 16.94 16.94 0 0 -8.47 59.26 0 0 8.47 42.34 0z"/>
   <path class="fil0" d="M2222.5 1164.16l-8.47 0 0 33.86 -8.47 0 0 25.4 -8.46 0 0 25.4 -8.47 0 0 25.4 -8.47 0 0 16.94 -8.46 0 0 25.4 -8.47 0 0 16.93 -8.47 0 0 16.93 -8.46 0 0 16.94 -8.47 0 0 8.46 -8.47 0 0 16.94 -8.46 0 0 8.46 -16.94 0 0 8.47 -16.93 0 0 8.47 -16.93 0 0 8.46 -33.87 0 0 8.47 -93.13 0 0 -8.47 -42.34 0 0 -8.46 -16.93 0 0 -8.47 -16.93 0 0 -8.47 -16.94 0 0 -8.46 -16.93 0 0 -8.47 -8.47 0 0 -8.47 -8.46 0 0 -16.93 -8.47 0 0 -8.47 -8.47 0 0 -8.46 -8.46 0 0 -8.47 -8.47 0 0 -8.47 -8.47 0 0 -8.46 -8.46 0 0 -16.94 -8.47 0 0 -8.46 -8.47 0 0 -8.47 -8.46 0 0 -8.47 -8.47 0 0 -16.93 -8.47 0 0 -8.47 -8.46 0 0 -8.46 -8.47 0 0 -16.94 8.47 0 0 8.47 160.86 0 0 -8.47 101.6 0 0 -8.46 33.87 0 0 -8.47 33.87 0 0 -8.47 33.86 0 0 -8.46 25.4 0 0 -8.47 25.4 0 0 -8.47 16.94 0 0 -8.46 25.4 0 0 -8.47 16.93 0 0 -8.47 25.4 0 0 -8.46 16.93 0 0 8.46 -8.46 0 0 16.94zm16.93 -67.73l-16.93 0 0 8.46 -16.94 0 0 8.47 -16.93 0 0 8.47 -16.93 0 0 8.46 -16.94 0 0 8.47 -25.4 0 0 8.46 -25.4 0 0 8.47 -25.4 0 0 8.47 -25.4 0 0 8.46 -33.86 0 0 8.47 -42.34 0 0 8.47 -50.8 0 0 8.46 -254 0 0 -8.46 -16.93 0 0 8.46 -8.47 0 0 25.4 8.47 0 0 8.47 16.93 0 0 8.47 8.47 0 0 16.93 8.47 0 0 8.47 8.46 0 0 8.46 8.47 0 0 8.47 8.47 0 0 16.93 8.46 0 0 8.47 8.47 0 0 8.47 8.47 0 0 16.93 8.46 0 0 8.47 8.47 0 0 8.46 8.47 0 0 8.47 8.46 0 0 8.47 8.47 0 0 8.46 8.47 0 0 16.94 8.46 0 0 8.46 8.47 0 0 8.47 16.93 0 0 8.47 8.47 0 0 8.46 8.47 0 0 8.47 16.93 0 0 8.47 25.4 0 0 8.46 25.4 0 0 8.47 59.27 0 0 8.47 50.8 0 0 -8.47 50.8 0 0 -8.47 25.4 0 0 -8.46 16.93 0 0 -8.47 8.47 0 0 -8.47 8.46 0 0 -8.46 8.47 0 0 -8.47 8.47 0 0 -8.47 8.46 0 0 -8.46 8.47 0 0 -8.47 8.47 0 0 -16.93 8.46 0 0 -16.94 8.47 0 0 -25.4 8.47 0 0 -16.93 8.46 0 0 -25.4 8.47 0 0 -16.93 8.47 0 0 -25.4 8.46 0 0 -25.4 8.47 0 0 -25.4 8.47 0 0 -33.87 8.46 0 0 -25.4 8.47 0 0 -33.86 -8.47 0 0 -8.47 -16.93 0 0 8.47z"/>
   <polygon class="fil0" points="1773.76,918.63 1765.3,918.63 1765.3,927.09 1756.83,927.09 1756.83,944.03 1748.36,944.03 1748.36,994.83 1756.83,994.83 1756.83,1020.23 1765.3,1020.23 1765.3,1037.16 1773.76,1037.16 1773.76,1045.63 1782.23,1045.63 1782.23,1054.09 1816.1,1054.09 1816.1,1045.63 1824.56,1045.63 1824.56,1037.16 1833.03,1037.16 1833.03,1020.23 1841.5,1020.23 1841.5,969.43 1833.03,969.43 1833.03,944.03 1824.56,944.03 1824.56,927.09 1816.1,927.09 1816.1,918.63 1799.16,918.63 1799.16,910.16 1773.76,910.16 "/>
   <polygon class="fil0" points="2087.03,893.23 2078.56,893.23 2078.56,901.69 2070.1,901.69 2070.1,918.63 2061.63,918.63 2061.63,994.83 2070.1,994.83 2070.1,1003.29 2078.56,1003.29 2078.56,1011.76 2120.9,1011.76 2120.9,1003.29 2129.36,1003.29 2129.36,986.36 2137.83,986.36 2137.83,977.89 2146.3,977.89 2146.3,969.43 2154.76,969.43 2154.76,944.03 2163.23,944.03 2163.23,927.09 2154.76,927.09 2154.76,910.16 2146.3,910.16 2146.3,901.69 2137.83,901.69 2137.83,893.23 2120.9,893.23 2120.9,884.76 2087.03,884.76 "/>
  </g>
 </g>
</svg>
